<?xml version="1.0" encoding="UTF-8" standalone="no"?>
<!DOCTYPE svg PUBLIC "-//W3C//DTD SVG 1.1//EN" "http://www.w3.org/Graphics/SVG/1.1/DTD/svg11.dtd">
<svg width="100%" height="100%" viewBox="0 0 765 273" version="1.1" xmlns="http://www.w3.org/2000/svg" xmlns:xlink="http://www.w3.org/1999/xlink" xml:space="preserve" xmlns:serif="http://www.serif.com/" style="fill-rule:evenodd;clip-rule:evenodd;">
    <g transform="matrix(1,0,0,1,1.73172,1.73172)">
        <g>
            <g transform="matrix(1,0,0,0.482306,0,0)">
                <clipPath id="_clip1">
                    <rect x="0" y="0" width="761" height="557"/>
                </clipPath>
                <g clip-path="url(#_clip1)">
                    <rect x="0" y="0" width="761" height="557" style="fill:white;stroke:white;stroke-width:1.07px;"/>
                </g>
            </g>
            <g>
                <clipPath id="_clip2">
                    <rect x="52.76" y="40.88" width="576.38" height="171.3"/>
                </clipPath>
                <g clip-path="url(#_clip2)">
                    <path d="M52.76,184.92L629.15,184.92" style="fill:none;fill-rule:nonzero;stroke:rgb(235,235,235);stroke-width:0.53px;"/>
                    <path d="M52.76,145.99L629.15,145.99" style="fill:none;fill-rule:nonzero;stroke:rgb(235,235,235);stroke-width:0.53px;"/>
                    <path d="M52.76,107.06L629.15,107.06" style="fill:none;fill-rule:nonzero;stroke:rgb(235,235,235);stroke-width:0.53px;"/>
                    <path d="M52.76,68.13L629.15,68.13" style="fill:none;fill-rule:nonzero;stroke:rgb(235,235,235);stroke-width:0.53px;"/>
                    <path d="M52.76,204.39L629.15,204.39" style="fill:none;fill-rule:nonzero;stroke:rgb(235,235,235);stroke-width:1.07px;"/>
                    <path d="M52.76,165.46L629.15,165.46" style="fill:none;fill-rule:nonzero;stroke:rgb(235,235,235);stroke-width:1.07px;"/>
                    <path d="M52.76,126.53L629.15,126.53" style="fill:none;fill-rule:nonzero;stroke:rgb(235,235,235);stroke-width:1.07px;"/>
                    <path d="M52.76,87.59L629.15,87.59" style="fill:none;fill-rule:nonzero;stroke:rgb(235,235,235);stroke-width:1.07px;"/>
                    <path d="M52.76,48.66L629.15,48.66" style="fill:none;fill-rule:nonzero;stroke:rgb(235,235,235);stroke-width:1.07px;"/>
                    <path d="M100.79,212.18L100.79,40.88" style="fill:none;fill-rule:nonzero;stroke:rgb(235,235,235);stroke-width:1.07px;"/>
                    <path d="M180.85,212.18L180.85,40.88" style="fill:none;fill-rule:nonzero;stroke:rgb(235,235,235);stroke-width:1.07px;"/>
                    <path d="M260.9,212.18L260.9,40.88" style="fill:none;fill-rule:nonzero;stroke:rgb(235,235,235);stroke-width:1.07px;"/>
                    <path d="M340.95,212.18L340.95,40.88" style="fill:none;fill-rule:nonzero;stroke:rgb(235,235,235);stroke-width:1.07px;"/>
                    <path d="M421.01,212.18L421.01,40.88" style="fill:none;fill-rule:nonzero;stroke:rgb(235,235,235);stroke-width:1.07px;"/>
                    <path d="M501.06,212.18L501.06,40.88" style="fill:none;fill-rule:nonzero;stroke:rgb(235,235,235);stroke-width:1.07px;"/>
                    <path d="M581.11,212.18L581.11,40.88" style="fill:none;fill-rule:nonzero;stroke:rgb(235,235,235);stroke-width:1.07px;"/>
                    <path d="M100.76,185.74L100.76,183.87L100.75,183.6L100.75,183.34L100.72,182.53L100.71,182.27L100.71,181.73L100.72,181.46L100.73,181.2L100.74,180.93L100.74,180.66L100.75,180.39L100.76,180.13L100.77,179.86L100.77,179.59L100.78,179.32L100.78,179.06L100.79,178.79L100.79,177.99L100.78,177.72L100.78,177.18L100.77,176.91L100.77,175.04L100.76,174.77L100.76,174.24L100.75,173.97L100.75,173.17L100.74,172.9L100.74,171.56L100.73,171.3L100.7,170.49L100.68,170.23L100.66,169.69L100.66,169.16L100.69,168.35L100.69,167.55L100.68,167.28L100.67,167.02L100.67,166.75L100.66,166.48L100.67,166.21L100.67,165.95L100.7,165.14L100.71,164.88L100.72,164.61L100.72,164.34L100.73,164.07L100.73,163.81L100.74,163.54L100.74,163.27L100.73,163L100.72,162.74L100.69,161.93L100.67,161.67L100.64,160.86L100.64,160.6L100.63,160.33L100.63,160.06L100.62,159.79L100.62,158.45L100.61,158.19L100.6,157.92L100.56,157.38L100.54,157.12L100.53,156.85L100.51,156.58L100.51,156.05L100.52,155.78L100.54,155.51L100.55,155.24L100.56,154.98L100.57,154.71L100.57,154.44L100.56,154.17L100.56,153.91L100.54,153.64L100.52,153.1L100.51,152.84L100.5,152.57L100.5,152.3L100.49,152.03L100.48,151.77L100.47,151.5L100.45,151.23L100.44,150.96L100.42,150.7L100.36,149.89L100.34,149.63L100.32,149.36L100.29,149.09L100.27,148.82L100.24,148.56L100.18,147.75L100.17,147.49L100.16,147.22L100.12,146.68L100.09,146.42L100.03,145.88L99.99,145.61L99.95,145.35L99.91,145.08L99.86,144.81L99.82,144.54L99.77,144.28L99.62,143.47L99.56,143.21L99.51,142.94L99.39,142.4L99.34,142.14L99.28,141.87L99.13,141.06L99.08,140.8L99.02,140.53L98.95,140.26L98.87,139.99L98.77,139.73L98.65,139.46L98.52,139.19L98.37,138.92L98.21,138.66L98.03,138.39L97.84,138.12L97.64,137.85L97.42,137.59L97.19,137.32L96.93,137.05L96.66,136.78L96.36,136.52L96.04,136.25L95.34,135.71L94.96,135.45L94.57,135.18L94.17,134.91L93.75,134.64L93.3,134.38L92.83,134.11L92.34,133.84L91.84,133.57L91.34,133.31L89.84,132.5L89.33,132.24L88.78,131.97L88.2,131.7L87.57,131.43L86.91,131.17L86.2,130.9L85.46,130.63L84.7,130.36L83.91,130.1L82.35,129.56L81.6,129.29L80.89,129.03L80.22,128.76L79.6,128.49L79.03,128.22L78.51,127.96L78.02,127.69L77.57,127.42L77.15,127.15L76.78,126.89L76.47,126.62L76.24,126.35L76.09,126.08L76.03,125.82L76.04,125.55L76.12,125.28L76.24,125.01L76.39,124.75L76.55,124.48L76.72,124.21L76.91,123.94L77.15,123.67L77.45,123.41L77.82,123.14L78.27,122.87L78.8,122.6L79.39,122.34L80.02,122.07L80.69,121.8L81.37,121.53L82.04,121.27L82.71,121L83.36,120.73L83.98,120.46L84.6,120.2L85.21,119.93L85.83,119.66L86.46,119.39L87.11,119.13L87.78,118.86L88.43,118.59L89.07,118.32L89.67,118.06L90.23,117.79L90.75,117.52L91.22,117.25L91.67,116.99L92.08,116.72L92.48,116.45L92.85,116.18L93.21,115.92L93.55,115.65L94.19,115.11L94.52,114.85L94.86,114.58L95.21,114.31L95.57,114.04L95.92,113.78L96.27,113.51L96.59,113.24L96.87,112.97L97.11,112.71L97.3,112.44L97.45,112.17L97.58,111.9L97.69,111.64L97.78,111.37L97.98,110.83L98.07,110.57L98.4,109.76L98.51,109.5L98.62,109.23L98.74,108.96L98.84,108.69L98.94,108.43L99.1,107.89L99.15,107.62L99.2,107.36L99.25,107.09L99.29,106.82L99.34,106.55L99.4,106.28L99.45,106.02L99.57,105.48L99.62,105.21L99.67,104.95L99.73,104.68L99.78,104.41L99.85,104.14L99.92,103.88L100.13,103.07L100.19,102.81L100.24,102.54L100.28,102.27L100.31,102L100.33,101.74L100.33,100.93L100.32,100.67L100.32,100.4L100.33,100.13L100.33,99.86L100.34,99.6L100.36,99.33L100.37,99.06L100.39,98.79L100.41,98.53L100.47,97.72L100.49,97.46L100.51,97.19L100.52,96.92L100.52,96.65L100.51,96.39L100.48,95.58L100.48,95.32L100.5,94.78L100.52,94.51L100.55,94.25L100.58,93.98L100.6,93.71L100.63,93.44L100.65,93.18L100.66,92.91L100.68,92.64L100.69,92.37L100.7,92.11L100.71,91.84L100.71,91.57L100.72,91.3L100.72,90.5L100.71,90.23L100.69,89.97L100.68,89.7L100.66,89.43L100.65,89.16L100.63,88.89L100.63,88.36L100.64,88.09L100.66,87.82L100.67,87.56L100.69,87.29L100.71,86.75L100.72,86.49L100.72,85.95L100.71,85.68L100.7,85.42L100.69,85.15L100.69,84.88L100.68,84.61L100.68,84.35L100.69,84.08L100.69,83.81L100.71,83.54L100.72,83.28L100.73,83.01L100.75,82.74L100.76,82.47L100.77,82.21L100.77,81.94L100.78,81.67L100.78,80.87L100.77,80.6L100.77,79.8L100.78,79.53L100.78,78.73L100.76,78.19L100.76,77.93L100.73,77.12L100.73,76.86L100.74,76.59L100.74,76.32L100.75,76.05L100.76,75.79L100.77,75.52L100.77,73.91L100.78,73.65L100.78,73.11L100.79,72.84L100.79,64.28L100.78,64.01L100.78,63.21L100.77,62.94L100.77,62.68L100.78,62.41L100.78,61.61L100.79,61.34L100.79,54.92L100.78,54.65L100.78,54.12L100.77,53.85L100.77,53.31L100.78,53.04L100.78,52.51L100.79,52.24L100.79,50.37L100.78,50.1L100.78,49.57L100.77,49.3L100.77,49.03L100.82,49.03L100.81,49.3L100.81,50.1L100.8,50.37L100.8,52.24L100.81,52.51L100.81,53.31L100.82,53.58L100.81,53.85L100.81,54.65L100.8,54.92L100.8,56.26L100.79,56.52L100.79,59.73L100.8,60L100.8,61.61L100.81,61.87L100.81,62.41L100.82,62.68L100.82,62.94L100.81,63.21L100.81,63.75L100.8,64.01L100.8,65.62L100.79,65.89L100.79,70.97L100.8,71.24L100.8,72.84L100.81,73.11L100.81,73.65L100.82,73.91L100.82,75.52L100.83,75.79L100.84,76.05L100.85,76.32L100.85,76.59L100.86,76.86L100.86,77.12L100.83,77.93L100.83,78.19L100.81,78.73L100.81,79.8L100.82,80.07L100.82,80.33L100.81,80.6L100.81,81.67L100.82,81.94L100.82,82.21L100.83,82.47L100.84,82.74L100.86,83.01L100.87,83.28L100.88,83.54L100.91,84.35L100.91,84.61L100.9,84.88L100.9,85.15L100.89,85.42L100.88,85.68L100.87,85.95L100.87,86.75L100.89,87.02L100.9,87.29L100.92,87.56L100.93,87.82L100.95,88.09L100.96,88.36L100.96,88.89L100.94,89.16L100.93,89.43L100.89,89.97L100.88,90.23L100.87,90.5L100.87,91.3L100.88,91.57L100.88,91.84L100.89,92.11L100.9,92.37L100.92,92.91L100.94,93.18L100.96,93.44L100.99,93.71L101.01,93.98L101.04,94.25L101.07,94.51L101.09,94.78L101.11,95.32L101.11,95.58L101.08,96.39L101.07,96.65L101.07,96.92L101.08,97.19L101.1,97.46L101.12,97.72L101.18,98.53L101.2,98.79L101.22,99.06L101.23,99.33L101.25,99.6L101.26,99.86L101.26,100.13L101.27,100.4L101.27,100.67L101.26,100.93L101.26,101.74L101.28,102L101.31,102.27L101.35,102.54L101.4,102.81L101.46,103.07L101.67,103.88L101.74,104.14L101.81,104.41L101.86,104.68L101.92,104.95L101.97,105.21L102.02,105.48L102.08,105.75L102.13,106.02L102.19,106.28L102.25,106.55L102.3,106.82L102.34,107.09L102.39,107.36L102.44,107.62L102.49,107.89L102.65,108.43L102.75,108.69L102.85,108.96L102.97,109.23L103.08,109.5L103.19,109.76L103.41,110.3L103.51,110.57L103.61,110.83L103.81,111.37L103.9,111.64L104.01,111.9L104.14,112.17L104.29,112.44L104.48,112.71L104.72,112.97L105,113.24L105.32,113.51L105.66,113.78L106.02,114.04L106.38,114.31L106.73,114.58L107.07,114.85L107.4,115.11L108.04,115.65L108.38,115.92L108.74,116.18L109.11,116.45L109.51,116.72L109.92,116.99L110.37,117.25L110.84,117.52L111.35,117.79L111.92,118.06L112.52,118.32L113.16,118.59L113.81,118.86L114.47,119.13L115.13,119.39L115.76,119.66L116.38,119.93L116.99,120.2L117.61,120.46L118.23,120.73L118.88,121L119.54,121.27L120.22,121.53L120.9,121.8L121.57,122.07L122.2,122.34L122.79,122.6L123.32,122.87L123.77,123.14L124.14,123.41L124.44,123.67L124.68,123.94L124.87,124.21L125.04,124.48L125.2,124.75L125.34,125.01L125.47,125.28L125.55,125.55L125.56,125.82L125.5,126.08L125.35,126.35L125.12,126.62L124.8,126.89L124.43,127.15L124.02,127.42L123.57,127.69L123.08,127.96L122.56,128.22L121.99,128.49L121.37,128.76L120.7,129.03L119.99,129.29L119.24,129.56L118.46,129.83L117.67,130.1L116.89,130.36L116.13,130.63L115.39,130.9L114.68,131.17L114.01,131.43L113.39,131.7L112.81,131.97L112.26,132.24L111.75,132.5L110.25,133.31L109.75,133.57L109.25,133.84L108.76,134.11L108.29,134.38L107.84,134.64L107.42,134.91L107.02,135.18L106.63,135.45L106.25,135.71L105.89,135.98L105.55,136.25L105.23,136.52L104.93,136.78L104.66,137.05L104.4,137.32L104.17,137.59L103.95,137.85L103.75,138.12L103.56,138.39L103.38,138.66L103.22,138.92L103.07,139.19L102.94,139.46L102.82,139.73L102.72,139.99L102.64,140.26L102.57,140.53L102.51,140.8L102.46,141.06L102.36,141.6L102.3,141.87L102.25,142.14L102.2,142.4L102.08,142.94L102.03,143.21L101.97,143.47L101.92,143.74L101.86,144.01L101.82,144.28L101.77,144.54L101.73,144.81L101.68,145.08L101.64,145.35L101.6,145.61L101.56,145.88L101.53,146.15L101.49,146.42L101.47,146.68L101.43,147.22L101.42,147.49L101.41,147.75L101.35,148.56L101.32,148.82L101.3,149.09L101.27,149.36L101.25,149.63L101.23,149.89L101.17,150.7L101.15,150.96L101.14,151.23L101.12,151.5L101.11,151.77L101.1,152.03L101.09,152.3L101.09,152.57L101.08,152.84L101.07,153.1L101.05,153.64L101.03,153.91L101.03,154.17L101.02,154.44L101.02,154.71L101.03,154.98L101.04,155.24L101.05,155.51L101.07,155.78L101.08,156.05L101.08,156.58L101.06,156.85L101.05,157.12L101.03,157.38L100.99,157.92L100.98,158.19L100.97,158.45L100.96,158.72L100.96,158.99L100.97,159.26L100.97,159.52L100.96,159.79L100.96,160.33L100.95,160.6L100.94,160.86L100.94,161.13L100.92,161.67L100.9,161.93L100.88,162.47L100.86,162.74L100.86,163L100.85,163.27L100.85,163.54L100.86,163.81L100.86,164.07L100.87,164.34L100.87,164.61L100.88,164.88L100.89,165.14L100.92,165.95L100.92,166.21L100.93,166.48L100.92,166.75L100.92,167.02L100.91,167.28L100.9,167.55L100.9,168.35L100.93,169.16L100.93,169.69L100.91,170.23L100.89,170.49L100.88,170.76L100.86,171.03L100.86,171.3L100.85,171.56L100.85,172.9L100.84,173.17L100.84,173.97L100.83,174.24L100.83,174.77L100.82,175.04L100.82,176.65L100.81,176.91L100.81,177.72L100.8,177.99L100.8,178.79L100.81,179.06L100.81,179.32L100.82,179.59L100.82,179.86L100.83,180.13L100.84,180.39L100.85,180.66L100.85,180.93L100.86,181.2L100.87,181.46L100.88,181.73L100.88,182.27L100.87,182.53L100.84,183.34L100.84,183.6L100.83,183.87L100.83,185.74L100.76,185.74Z" style="fill:rgb(141,211,199);fill-rule:nonzero;stroke:rgb(51,51,51);stroke-width:1.07px;"/>
                    <path d="M180.82,203.32L180.82,201.62L180.83,201.33L180.83,200.77L180.84,200.48L180.84,199.91L180.83,199.63L180.83,199.06L180.82,198.78L180.82,198.49L180.81,198.21L180.81,197.92L180.79,197.36L180.78,197.07L180.77,196.79L180.76,196.5L180.76,195.65L180.77,195.37L180.78,195.08L180.79,194.8L180.79,194.52L180.8,194.23L180.8,193.38L180.81,193.1L180.81,192.81L180.82,192.53L180.82,192.24L180.84,191.68L180.84,191.11L180.85,190.82L180.85,189.4L180.84,189.12L180.84,188.55L180.83,188.27L180.83,187.98L180.82,187.7L180.81,187.41L180.8,187.13L180.8,186.85L180.79,186.56L180.79,185.71L180.8,185.43L180.8,184.01L180.81,183.72L180.81,183.44L180.82,183.15L180.82,182.02L180.81,181.73L180.81,181.45L180.8,181.16L180.79,180.88L180.79,180.6L180.78,180.31L180.78,179.74L180.77,179.46L180.77,178.89L180.78,178.61L180.78,178.32L180.8,177.76L180.81,177.47L180.81,177.19L180.82,176.9L180.81,176.62L180.81,176.34L180.8,176.05L180.79,175.77L180.79,175.48L180.78,175.2L180.78,173.49L180.79,173.21L180.79,171.51L180.78,171.22L180.78,169.52L180.77,169.23L180.75,168.67L180.73,168.38L180.71,168.1L180.7,167.81L180.69,167.53L180.69,166.96L180.7,166.68L180.71,166.39L180.72,166.11L180.72,165.82L180.73,165.54L180.72,165.26L180.72,164.97L180.71,164.69L180.71,164.12L180.7,163.84L180.71,163.55L180.71,162.98L180.72,162.7L180.72,162.42L180.73,162.13L180.74,161.85L180.75,161.56L180.76,161.28L180.76,161L180.77,160.71L180.77,159.86L180.76,159.58L180.75,159.29L180.74,159.01L180.72,158.72L180.7,158.16L180.68,157.87L180.67,157.59L180.66,157.3L180.64,157.02L180.63,156.73L180.61,156.17L180.62,155.88L180.62,155.6L180.63,155.31L180.64,155.03L180.64,154.46L180.63,154.18L180.6,153.89L180.58,153.61L180.55,153.33L180.52,153.04L180.49,152.76L180.46,152.47L180.43,152.19L180.39,151.91L180.35,151.62L180.31,151.34L180.28,151.05L180.22,150.49L180.21,150.2L180.19,149.92L180.18,149.63L180.17,149.35L180.15,149.06L180.13,148.78L180.12,148.5L180.11,148.21L180.09,147.93L180.08,147.64L180.04,147.08L180,146.79L179.96,146.51L179.91,146.22L179.79,145.66L179.72,145.37L179.65,145.09L179.57,144.8L179.49,144.52L179.4,144.24L179.32,143.95L179.24,143.67L179.16,143.38L178.98,142.82L178.88,142.53L178.77,142.25L178.66,141.96L178.4,141.4L178.26,141.11L178.1,140.83L177.92,140.54L177.72,140.26L177.52,139.97L177.1,139.41L176.89,139.12L176.67,138.84L176.45,138.55L176.22,138.27L175.98,137.99L175.75,137.7L175.52,137.42L175.3,137.13L175.09,136.85L174.87,136.57L174.63,136.28L174.34,136L173.99,135.71L173.55,135.43L173.02,135.15L172.4,134.86L171.69,134.58L170.9,134.29L170.06,134.01L169.19,133.73L168.33,133.44L167.5,133.16L166.71,132.87L165.97,132.59L165.26,132.3L164.57,132.02L163.85,131.74L163.11,131.45L162.33,131.17L161.51,130.88L159.83,130.32L159.01,130.03L158.21,129.75L157.46,129.46L156.77,129.18L156.16,128.9L155.65,128.61L155.25,128.33L154.98,128.04L154.87,127.76L154.91,127.48L155.1,127.19L155.42,126.91L155.84,126.62L156.33,126.34L156.85,126.06L157.39,125.77L157.94,125.49L158.53,125.2L159.15,124.92L159.8,124.63L160.48,124.35L161.17,124.07L161.87,123.78L162.55,123.5L163.23,123.21L163.91,122.93L164.57,122.65L165.22,122.36L165.84,122.08L166.41,121.79L166.93,121.51L167.42,121.23L167.88,120.94L168.34,120.66L168.83,120.37L169.36,120.09L169.93,119.81L170.53,119.52L171.15,119.24L171.76,118.95L172.32,118.67L172.83,118.39L173.27,118.1L173.63,117.82L173.93,117.53L174.18,117.25L174.41,116.97L174.64,116.68L174.88,116.4L175.14,116.11L175.41,115.83L176.26,114.98L176.51,114.69L176.74,114.41L176.95,114.12L177.15,113.84L177.34,113.56L177.54,113.27L177.72,112.99L177.9,112.7L178.06,112.42L178.19,112.14L178.29,111.85L178.37,111.57L178.43,111.28L178.51,110.72L178.53,110.43L178.56,110.15L178.59,109.86L178.62,109.58L178.67,109.3L178.73,109.01L178.8,108.73L178.89,108.44L178.98,108.16L179.09,107.87L179.31,107.31L179.4,107.02L179.49,106.74L179.57,106.45L179.64,106.17L179.7,105.89L179.76,105.6L179.8,105.32L179.84,105.03L179.87,104.75L179.91,104.47L179.94,104.18L179.97,103.9L180,103.61L180.03,103.33L180.05,103.05L180.07,102.76L180.08,102.48L180.1,102.19L180.12,101.91L180.13,101.63L180.15,101.34L180.16,101.06L180.17,100.77L180.21,100.21L180.24,99.92L180.28,99.64L180.33,99.35L180.39,99.07L180.44,98.78L180.49,98.5L180.52,98.22L180.55,97.93L180.55,97.65L180.54,97.36L180.53,97.08L180.5,96.8L180.48,96.51L180.46,96.23L180.44,95.94L180.44,95.38L180.45,95.09L180.46,94.81L180.48,94.52L180.5,93.96L180.51,93.67L180.52,93.39L180.55,93.1L180.57,92.82L180.61,92.54L180.64,92.25L180.67,91.97L180.7,91.68L180.72,91.4L180.73,91.11L180.73,90.26L180.72,89.98L180.71,89.69L180.71,89.41L180.7,89.13L180.69,88.84L180.68,88.56L180.67,88.27L180.67,87.71L180.68,87.42L180.7,87.14L180.71,86.85L180.71,86.29L180.7,86L180.69,85.72L180.68,85.43L180.67,85.15L180.67,84.3L180.68,84.01L180.69,83.73L180.71,83.44L180.73,82.88L180.75,82.59L180.76,82.31L180.77,82.02L180.79,81.46L180.8,81.17L180.81,80.89L180.82,80.6L180.82,80.32L180.83,80.04L180.83,79.47L180.82,79.18L180.82,78.05L180.81,77.76L180.81,77.48L180.8,77.2L180.79,76.91L180.78,76.63L180.77,76.34L180.76,76.06L180.76,74.92L180.77,74.64L180.78,74.35L180.79,74.07L180.79,73.79L180.8,73.5L180.81,73.22L180.81,72.93L180.82,72.65L180.82,72.37L180.83,72.08L180.83,71.23L180.82,70.95L180.81,70.66L180.8,70.38L180.79,70.09L180.78,69.81L180.78,69.53L180.77,69.24L180.78,68.96L180.78,68.67L180.8,68.11L180.82,67.82L180.83,67.54L180.83,67.25L180.84,66.97L180.84,65.83L180.83,65.55L180.83,61L180.84,60.72L180.84,59.3L180.83,59.02L180.83,58.16L180.87,58.16L180.87,58.73L180.86,59.02L180.86,59.58L180.85,59.87L180.85,60.15L180.86,60.44L180.86,61.29L180.87,61.57L180.87,62.42L180.86,62.71L180.86,63.84L180.87,64.13L180.87,65.26L180.86,65.55L180.86,67.25L180.87,67.54L180.88,67.82L180.89,68.11L180.91,68.67L180.92,68.96L180.92,69.53L180.9,70.09L180.89,70.38L180.88,70.66L180.87,70.95L180.87,72.37L180.88,72.65L180.88,72.93L180.89,73.22L180.89,73.5L180.9,73.79L180.92,74.35L180.92,74.64L180.93,74.92L180.94,75.21L180.94,75.78L180.93,76.06L180.93,76.34L180.92,76.63L180.91,76.91L180.9,77.2L180.88,77.76L180.88,78.33L180.87,78.62L180.87,80.32L180.88,80.6L180.88,80.89L180.89,81.17L180.9,81.46L180.92,82.02L180.94,82.31L180.95,82.59L180.96,82.88L180.98,83.16L180.99,83.44L181,83.73L181.01,84.01L181.02,84.3L181.03,84.58L181.03,84.87L181.02,85.15L181.02,85.43L181,85.72L180.99,86L180.98,86.29L180.98,86.57L180.99,86.85L181,87.14L181.01,87.42L181.02,87.71L181.03,87.99L181.02,88.27L181.02,88.56L181.01,88.84L181,89.13L180.98,89.69L180.97,89.98L180.97,91.11L180.98,91.4L181,91.68L181.02,91.97L181.06,92.25L181.09,92.54L181.15,93.1L181.17,93.39L181.19,93.67L181.2,93.96L181.22,94.52L181.23,94.81L181.25,95.09L181.26,95.38L181.26,95.66L181.25,95.94L181.24,96.23L181.22,96.51L181.19,96.8L181.15,97.36L181.14,97.65L181.15,97.93L181.17,98.22L181.25,98.78L181.31,99.07L181.36,99.35L181.41,99.64L181.45,99.92L181.48,100.21L181.51,100.49L181.52,100.77L181.54,101.06L181.55,101.34L181.56,101.63L181.58,101.91L181.59,102.19L181.61,102.48L181.63,102.76L181.65,103.05L181.69,103.61L181.72,103.9L181.76,104.18L181.79,104.47L181.82,104.75L181.86,105.03L181.9,105.32L181.94,105.6L181.99,105.89L182.05,106.17L182.12,106.45L182.2,106.74L182.29,107.02L182.39,107.31L182.49,107.59L182.6,107.87L182.71,108.16L182.81,108.44L182.9,108.73L182.97,109.01L183.03,109.3L183.11,109.86L183.14,110.15L183.16,110.43L183.19,110.72L183.22,111L183.26,111.28L183.32,111.57L183.4,111.85L183.51,112.14L183.64,112.42L183.8,112.7L183.97,112.99L184.16,113.27L184.35,113.56L184.75,114.12L184.96,114.41L185.19,114.69L185.44,114.98L185.71,115.26L186,115.54L186.28,115.83L186.56,116.11L186.82,116.4L187.05,116.68L187.28,116.97L187.51,117.25L187.77,117.53L188.07,117.82L188.43,118.1L188.86,118.39L189.37,118.67L189.94,118.95L190.54,119.24L191.16,119.52L191.77,119.81L192.34,120.09L192.87,120.37L193.35,120.66L193.82,120.94L194.28,121.23L194.76,121.51L195.29,121.79L195.86,122.08L196.47,122.36L197.12,122.65L198.46,123.21L199.14,123.5L199.83,123.78L200.52,124.07L201.21,124.35L201.89,124.63L202.55,124.92L203.17,125.2L204.31,125.77L204.85,126.06L205.37,126.34L205.85,126.62L206.27,126.91L206.6,127.19L206.79,127.48L206.83,127.76L206.71,128.04L206.45,128.33L206.05,128.61L205.53,128.9L204.92,129.18L204.23,129.46L203.48,129.75L202.69,130.03L201.86,130.32L200.18,130.88L199.37,131.17L198.58,131.45L197.84,131.74L197.13,132.02L196.43,132.3L195.72,132.59L194.98,132.87L194.19,133.16L193.36,133.44L192.5,133.73L191.64,134.01L190.8,134.29L190.01,134.58L189.29,134.86L188.67,135.15L188.14,135.43L187.71,135.71L187.36,136L187.07,136.28L186.83,136.57L186.61,136.85L186.4,137.13L186.18,137.42L185.95,137.7L185.72,137.99L185.48,138.27L185.25,138.55L185.02,138.84L184.81,139.12L184.59,139.41L184.38,139.69L184.18,139.97L183.97,140.26L183.78,140.54L183.6,140.83L183.44,141.11L183.29,141.4L183.16,141.68L183.04,141.96L182.92,142.25L182.81,142.53L182.71,142.82L182.62,143.1L182.54,143.38L182.46,143.67L182.38,143.95L182.29,144.24L182.21,144.52L182.12,144.8L182.04,145.09L181.97,145.37L181.9,145.66L181.84,145.94L181.79,146.22L181.74,146.51L181.69,146.79L181.66,147.08L181.63,147.36L181.61,147.64L181.6,147.93L181.59,148.21L181.58,148.5L181.54,149.06L181.53,149.35L181.52,149.63L181.5,149.92L181.49,150.2L181.47,150.49L181.45,150.77L181.42,151.05L181.38,151.34L181.34,151.62L181.3,151.91L181.24,152.47L181.21,152.76L181.18,153.04L181.15,153.33L181.09,153.89L181.07,154.18L181.06,154.46L181.05,154.75L181.07,155.31L181.07,155.6L181.08,155.88L181.08,156.45L181.07,156.73L181.05,157.02L181.04,157.3L181.03,157.59L181.01,157.87L181,158.16L180.99,158.44L180.97,158.72L180.96,159.01L180.95,159.29L180.94,159.58L180.92,160.14L180.92,160.43L180.93,160.71L180.93,161L180.95,161.56L180.96,161.85L180.96,162.13L180.97,162.42L180.98,162.7L180.98,162.98L180.99,163.27L180.99,164.4L180.98,164.69L180.98,164.97L180.97,165.26L180.97,165.82L180.98,166.11L180.99,166.39L181,166.68L181.01,166.96L181.01,167.53L181,167.81L180.98,168.1L180.97,168.38L180.95,168.67L180.93,168.95L180.92,169.23L180.92,170.37L180.91,170.65L180.91,173.78L180.92,174.06L180.92,175.2L180.91,175.48L180.9,175.77L180.89,176.05L180.89,176.34L180.88,176.62L180.88,177.19L180.89,177.47L180.9,177.76L180.91,178.04L180.91,178.32L180.92,178.61L180.92,180.03L180.91,180.31L180.91,180.6L180.9,180.88L180.9,181.16L180.89,181.45L180.88,181.73L180.88,182.02L180.87,182.3L180.87,182.59L180.88,182.87L180.88,183.44L180.89,183.72L180.89,184.86L180.9,185.14L180.9,186.85L180.88,187.41L180.88,187.7L180.87,187.98L180.86,188.27L180.86,188.55L180.85,188.83L180.85,191.11L180.86,191.39L180.86,191.68L180.87,191.96L180.87,192.24L180.88,192.53L180.88,192.81L180.89,193.1L180.89,193.95L180.9,194.23L180.9,194.52L180.92,195.08L180.93,195.37L180.93,195.65L180.94,195.94L180.94,196.5L180.93,196.79L180.92,197.07L180.91,197.36L180.89,197.92L180.88,198.21L180.88,198.49L180.87,198.78L180.87,199.06L180.86,199.35L180.86,200.77L180.87,201.05L180.87,201.62L180.88,201.9L180.88,203.04L180.87,203.32L180.82,203.32Z" style="fill:rgb(255,255,179);fill-rule:nonzero;stroke:rgb(51,51,51);stroke-width:1.07px;"/>
                    <path d="M260.88,199.03L260.88,198.21L260.89,197.94L260.89,197.4L260.88,197.12L260.88,196.85L260.87,196.58L260.86,196.3L260.86,195.49L260.87,195.21L260.87,194.94L260.89,194.4L260.89,194.12L260.9,193.85L260.9,190.58L260.89,190.31L260.88,190.03L260.86,189.49L260.86,189.21L260.85,188.94L260.85,188.67L260.86,188.4L260.87,188.12L260.89,187.58L260.89,187.31L260.9,187.03L260.9,184.03L260.89,183.76L260.89,183.49L260.88,183.22L260.88,182.94L260.87,182.67L260.87,177.49L260.88,177.22L260.88,176.94L260.89,176.67L260.89,176.4L260.9,176.13L260.9,174.22L260.89,173.94L260.89,173.67L260.87,173.13L260.86,172.85L260.84,172.58L260.84,172.31L260.83,172.04L260.83,171.22L260.84,170.94L260.86,170.4L260.88,170.13L260.89,169.85L260.89,169.58L260.9,169.31L260.9,168.22L260.89,167.95L260.88,167.67L260.87,167.4L260.87,167.13L260.86,166.85L260.85,166.58L260.85,166.04L260.86,165.76L260.86,165.22L260.87,164.95L260.87,164.67L260.88,164.4L260.88,163.85L260.89,163.58L260.88,163.31L260.88,163.04L260.86,162.76L260.85,162.49L260.81,161.95L260.79,161.67L260.77,161.4L260.75,160.86L260.75,160.58L260.76,160.31L260.76,160.04L260.77,159.76L260.77,159.49L260.75,158.95L260.73,158.67L260.69,158.13L260.68,157.86L260.68,157.31L260.69,157.04L260.69,156.22L260.68,155.95L260.67,155.67L260.65,155.13L260.65,154.86L260.64,154.58L260.63,154.31L260.61,154.04L260.58,153.77L260.55,153.49L260.53,153.22L260.52,152.95L260.52,152.67L260.53,152.4L260.53,151.86L260.52,151.58L260.5,151.31L260.48,150.77L260.48,150.49L260.49,150.22L260.53,149.68L260.54,149.4L260.55,149.13L260.54,148.86L260.52,148.58L260.43,147.77L260.4,147.49L260.37,147.22L260.35,146.95L260.34,146.68L260.33,146.4L260.32,146.13L260.3,145.86L260.26,145.58L260.21,145.31L260.05,144.77L259.98,144.49L259.92,144.22L259.89,143.95L259.88,143.68L259.89,143.4L259.93,142.86L259.94,142.59L259.93,142.31L259.91,142.04L259.87,141.77L259.82,141.49L259.76,141.22L259.67,140.95L259.55,140.68L259.4,140.4L259.24,140.13L259.06,139.86L258.89,139.59L258.72,139.31L258.56,139.04L258.41,138.77L258.25,138.5L258.08,138.22L257.91,137.95L257.73,137.68L257.53,137.4L257.31,137.13L257.03,136.86L256.7,136.59L256.32,136.31L255.9,136.04L255.47,135.77L255.03,135.5L254.56,135.22L254.03,134.95L253.42,134.68L252.74,134.4L252.03,134.13L251.34,133.86L250.71,133.59L250.15,133.31L249.11,132.77L248.53,132.5L247.85,132.22L247.07,131.95L246.19,131.68L245.22,131.41L244.17,131.13L243.04,130.86L241.83,130.59L240.57,130.31L239.3,130.04L238.07,129.77L236.92,129.5L235.87,129.22L234.93,128.95L234.08,128.68L233.31,128.41L232.59,128.13L231.92,127.86L231.28,127.59L230.69,127.31L230.17,127.04L229.74,126.77L229.45,126.5L229.3,126.22L229.34,125.95L229.58,125.68L230.04,125.41L230.7,125.13L231.51,124.86L232.41,124.59L233.32,124.32L234.23,124.04L235.14,123.77L236.08,123.5L237.07,123.22L238.11,122.95L239.22,122.68L240.39,122.41L241.61,122.13L242.85,121.86L244.07,121.59L245.22,121.32L246.26,121.04L247.19,120.77L248.03,120.5L248.8,120.23L249.54,119.95L250.28,119.68L251.01,119.41L251.72,119.13L252.39,118.86L253.01,118.59L253.56,118.32L254.05,118.04L254.49,117.77L254.89,117.5L255.27,117.23L255.64,116.95L256,116.68L256.33,116.41L256.64,116.13L256.93,115.86L257.2,115.59L257.44,115.32L257.67,115.04L257.86,114.77L258.03,114.5L258.18,114.23L258.31,113.95L258.44,113.68L258.66,113.14L258.75,112.86L258.84,112.59L258.92,112.32L259,112.04L259.07,111.77L259.15,111.5L259.22,111.23L259.29,110.95L259.36,110.68L259.45,110.41L259.55,110.14L259.66,109.86L259.76,109.59L259.92,109.05L259.98,108.77L260.04,108.5L260.09,108.23L260.13,107.95L260.14,107.68L260.14,107.41L260.11,107.14L260.08,106.86L260.05,106.59L260.05,106.32L260.07,106.05L260.11,105.77L260.17,105.5L260.24,105.23L260.3,104.95L260.36,104.68L260.4,104.41L260.43,104.14L260.44,103.86L260.45,103.59L260.49,103.05L260.53,102.77L260.57,102.5L260.62,102.23L260.65,101.96L260.67,101.68L260.68,101.41L260.67,101.14L260.66,100.86L260.64,100.59L260.64,100.32L260.65,100.05L260.68,99.77L260.7,99.5L260.73,99.23L260.75,98.96L260.76,98.68L260.76,98.41L260.75,98.14L260.74,97.86L260.72,97.59L260.7,97.05L260.7,96.77L260.71,96.5L260.75,95.96L260.77,95.68L260.78,95.41L260.76,94.87L260.74,94.59L260.7,94.05L260.71,93.77L260.72,93.5L260.75,93.23L260.77,92.96L260.8,92.68L260.82,92.41L260.84,91.87L260.83,91.59L260.82,91.32L260.8,91.05L260.77,90.78L260.74,90.5L260.71,90.23L260.7,89.96L260.7,89.68L260.71,89.41L260.71,89.14L260.72,88.87L260.72,88.59L260.71,88.32L260.71,87.78L260.72,87.5L260.74,86.96L260.76,86.68L260.78,86.41L260.81,86.14L260.83,85.87L260.85,85.59L260.87,85.32L260.88,85.05L260.88,82.32L260.87,82.05L260.87,81.78L260.86,81.5L260.85,81.23L260.85,80.69L260.86,80.41L260.88,79.87L260.89,79.59L260.89,79.32L260.88,79.05L260.88,78.5L260.87,78.23L260.87,77.96L260.88,77.69L260.88,77.41L260.87,77.14L260.87,76.87L260.86,76.6L260.86,76.32L260.85,76.05L260.85,75.78L260.86,75.5L260.86,75.23L260.87,74.96L260.87,74.41L260.86,74.14L260.86,73.87L260.85,73.6L260.85,73.32L260.84,73.05L260.84,71.96L260.85,71.69L260.86,71.41L260.88,70.87L260.88,70.6L260.89,70.32L260.88,70.05L260.88,68.41L260.89,68.14L260.89,67.87L260.9,67.6L260.9,66.23L260.89,65.96L260.89,65.42L260.88,65.14L260.87,64.87L260.87,62.96L260.88,62.69L260.88,62.42L260.89,62.14L260.89,61.6L260.9,61.33L260.89,61.05L260.89,60.51L260.88,60.23L260.88,59.69L260.93,59.69L260.92,59.96L260.92,60.51L260.91,60.78L260.91,62.14L260.92,62.42L260.92,62.69L260.93,62.96L260.93,64.87L260.92,65.14L260.92,65.42L260.91,65.69L260.91,65.96L260.9,66.23L260.9,67.6L260.91,67.87L260.91,68.14L260.92,68.41L260.92,68.69L260.93,68.96L260.93,69.23L260.92,69.51L260.92,70.87L260.94,71.41L260.95,71.69L260.97,72.23L260.97,72.51L260.96,72.78L260.96,73.32L260.95,73.6L260.95,73.87L260.94,74.14L260.94,75.23L260.95,75.5L260.95,76.32L260.94,76.6L260.93,76.87L260.93,78.5L260.92,78.78L260.92,79.87L260.94,80.41L260.95,80.69L260.95,81.23L260.94,81.5L260.93,81.78L260.93,82.05L260.92,82.32L260.92,83.14L260.93,83.41L260.93,83.69L260.92,83.96L260.92,84.78L260.95,85.59L260.97,85.87L261,86.14L261.04,86.68L261.06,86.96L261.08,87.5L261.09,87.78L261.09,89.14L261.1,89.41L261.1,89.96L261.09,90.23L261.06,90.5L261.04,90.78L260.98,91.32L260.97,91.59L260.97,92.14L260.98,92.41L261,92.68L261.03,92.96L261.05,93.23L261.08,93.5L261.09,93.77L261.1,94.05L261.09,94.32L261.06,94.59L261.04,94.87L261.02,95.41L261.03,95.68L261.05,95.96L261.09,96.5L261.1,96.77L261.1,97.05L261.08,97.59L261.06,97.86L261.05,98.14L261.04,98.41L261.04,98.68L261.05,98.96L261.07,99.23L261.13,99.77L261.15,100.05L261.16,100.32L261.16,100.59L261.15,100.86L261.13,101.14L261.12,101.41L261.13,101.68L261.15,101.96L261.27,102.77L261.31,103.05L261.35,103.59L261.36,103.86L261.38,104.14L261.4,104.41L261.44,104.68L261.5,104.95L261.57,105.23L261.69,105.77L261.73,106.05L261.75,106.32L261.75,106.59L261.72,106.86L261.69,107.14L261.67,107.41L261.66,107.68L261.68,107.95L261.71,108.23L261.76,108.5L261.82,108.77L261.89,109.05L261.96,109.32L262.14,109.86L262.25,110.14L262.35,110.41L262.44,110.68L262.51,110.95L262.59,111.23L262.73,111.77L262.81,112.04L262.88,112.32L262.96,112.59L263.05,112.86L263.14,113.14L263.36,113.68L263.49,113.95L263.62,114.23L263.77,114.5L263.94,114.77L264.14,115.04L264.36,115.32L264.6,115.59L264.87,115.86L265.16,116.13L265.47,116.41L265.8,116.68L266.16,116.95L266.53,117.23L266.91,117.5L267.31,117.77L267.75,118.04L268.24,118.32L268.79,118.59L269.41,118.86L270.08,119.13L270.8,119.41L271.52,119.68L272.26,119.95L273,120.23L273.78,120.5L274.61,120.77L275.54,121.04L276.58,121.32L277.73,121.59L278.95,121.86L280.19,122.13L281.41,122.41L282.58,122.68L283.69,122.95L284.73,123.22L285.72,123.5L286.66,123.77L287.57,124.04L288.48,124.32L289.39,124.59L290.29,124.86L291.1,125.13L291.77,125.41L292.22,125.68L292.46,125.95L292.5,126.22L292.35,126.5L292.06,126.77L291.63,127.04L291.11,127.31L290.52,127.59L289.88,127.86L289.21,128.13L288.5,128.41L287.73,128.68L286.88,128.95L285.93,129.22L284.89,129.5L283.73,129.77L282.5,130.04L281.23,130.31L279.97,130.59L278.76,130.86L277.63,131.13L276.58,131.41L275.62,131.68L274.74,131.95L273.95,132.22L273.28,132.5L272.69,132.77L272.17,133.04L271.66,133.31L271.1,133.59L270.46,133.86L269.77,134.13L269.06,134.4L268.38,134.68L267.77,134.95L267.24,135.22L266.77,135.5L266.33,135.77L265.9,136.04L265.48,136.31L265.1,136.59L264.77,136.86L264.5,137.13L264.27,137.4L264.07,137.68L263.89,137.95L263.72,138.22L263.55,138.5L263.39,138.77L263.24,139.04L263.08,139.31L262.91,139.59L262.74,139.86L262.56,140.13L262.4,140.4L262.25,140.68L262.14,140.95L262.05,141.22L261.98,141.49L261.93,141.77L261.89,142.04L261.87,142.31L261.87,142.86L261.91,143.4L261.92,143.68L261.91,143.95L261.88,144.22L261.82,144.49L261.75,144.77L261.67,145.04L261.6,145.31L261.54,145.58L261.5,145.86L261.48,146.13L261.47,146.4L261.46,146.68L261.45,146.95L261.41,147.49L261.38,147.77L261.34,148.04L261.31,148.31L261.29,148.58L261.27,148.86L261.26,149.13L261.26,149.4L261.27,149.68L261.31,150.22L261.32,150.49L261.33,150.77L261.31,151.04L261.3,151.31L261.28,151.58L261.27,151.86L261.27,152.4L261.28,152.67L261.28,152.95L261.27,153.22L261.25,153.49L261.22,153.77L261.19,154.04L261.17,154.31L261.16,154.58L261.15,154.86L261.15,155.13L261.13,155.67L261.12,155.95L261.11,156.22L261.11,157.04L261.12,157.31L261.12,157.86L261.11,158.13L261.07,158.67L261.05,158.95L261.03,159.49L261.03,159.76L261.04,160.04L261.04,160.31L261.05,160.58L261.05,160.86L261.03,161.4L261.01,161.67L261,161.95L260.94,162.76L260.93,163.04L260.92,163.31L260.92,164.13L260.93,164.4L260.93,164.95L260.94,165.22L260.94,165.49L260.95,165.76L260.95,166.58L260.94,166.85L260.94,167.13L260.92,167.67L260.91,167.95L260.91,168.22L260.9,168.49L260.9,169.04L260.91,169.31L260.91,169.58L260.92,169.85L260.93,170.13L260.96,170.94L260.97,171.22L260.97,172.31L260.95,172.85L260.93,173.13L260.91,173.67L260.91,173.94L260.9,174.22L260.9,175.85L260.91,176.13L260.91,176.67L260.92,176.94L260.92,177.22L260.93,177.49L260.93,182.67L260.92,182.94L260.92,183.22L260.91,183.49L260.91,184.03L260.9,184.31L260.9,187.03L260.91,187.31L260.91,187.58L260.93,188.12L260.94,188.4L260.95,188.67L260.95,189.21L260.94,189.49L260.92,190.03L260.91,190.31L260.91,190.58L260.9,190.85L260.9,193.85L260.91,194.12L260.91,194.4L260.94,195.21L260.94,196.3L260.93,196.58L260.93,196.85L260.92,197.12L260.91,197.4L260.91,197.94L260.92,198.21L260.92,198.76L260.93,199.03L260.88,199.03Z" style="fill:rgb(190,186,218);fill-rule:nonzero;stroke:rgb(51,51,51);stroke-width:1.07px;"/>
                    <path d="M340.93,200.31L340.92,200.02L340.93,199.73L340.93,199.15L340.92,198.86L340.92,198.57L340.93,198.28L340.93,196.25L340.94,195.96L340.94,195.67L340.95,195.38L340.95,189.87L340.94,189.58L340.94,189.29L340.93,189L340.93,188.13L340.94,187.84L340.94,187.55L340.95,187.26L340.95,186.09L340.93,185.51L340.93,185.22L340.91,184.64L340.91,184.06L340.92,183.77L340.92,183.48L340.93,183.19L340.93,181.45L340.94,181.16L340.94,180L340.93,179.71L340.93,178.84L340.94,178.55L340.94,177.39L340.89,175.94L340.89,175.65L340.92,174.78L340.92,174.49L340.93,174.2L340.93,173.62L340.91,173.04L340.91,171.88L340.92,171.59L340.92,171.01L340.91,170.72L340.91,169.85L340.92,169.56L340.92,169.27L340.94,168.69L340.94,168.11L340.92,167.53L340.92,167.24L340.88,166.08L340.88,164.63L340.9,164.05L340.9,163.76L340.89,163.47L340.83,162.6L340.83,162.02L340.89,160.28L340.89,159.7L340.87,159.12L340.85,158.83L340.83,158.25L340.83,157.38L340.85,156.8L340.85,156.22L340.83,155.64L340.81,155.35L340.8,155.05L340.79,154.76L340.81,154.18L340.81,153.89L340.82,153.6L340.81,153.31L340.79,153.02L340.75,152.73L340.72,152.44L340.68,152.15L340.65,151.86L340.63,151.57L340.57,150.99L340.49,150.41L340.44,150.12L340.4,149.83L340.39,149.54L340.39,149.25L340.41,148.96L340.45,148.67L340.48,148.38L340.52,148.09L340.54,147.8L340.54,147.51L340.52,147.22L340.48,146.93L340.43,146.64L340.37,146.35L340.3,146.06L340.18,145.48L340.14,145.19L340.09,144.9L340.05,144.61L340.02,144.32L340,143.74L340.02,143.45L340.08,142.87L340.1,142.58L340.11,142.29L340.08,142L339.99,141.71L339.86,141.42L339.69,141.13L339.51,140.84L339.36,140.55L339.24,140.26L339.15,139.97L339.07,139.68L338.98,139.39L338.83,139.1L338.63,138.81L338.15,138.23L337.94,137.94L337.78,137.65L337.54,137.07L337.41,136.78L337.25,136.49L337.04,136.2L336.77,135.91L336.44,135.62L336.01,135.33L335.48,135.04L334.84,134.75L334.12,134.46L333.33,134.17L332.47,133.88L331.55,133.59L330.57,133.3L329.54,133.01L328.5,132.72L327.48,132.43L325.5,131.85L324.47,131.56L323.35,131.27L322.12,130.98L320.79,130.69L319.39,130.4L313.71,129.24L312.35,128.95L311.1,128.66L310.03,128.37L309.15,128.08L308.42,127.79L307.84,127.5L307.43,127.21L307.19,126.92L307.13,126.63L307.18,126.34L307.27,126.05L307.42,125.76L307.74,125.47L308.33,125.18L309.27,124.89L310.49,124.6L311.89,124.31L313.35,124.02L314.85,123.72L316.4,123.43L318.03,123.14L319.77,122.85L321.56,122.56L323.31,122.27L324.91,121.98L326.27,121.69L327.39,121.4L328.34,121.11L329.19,120.82L330.81,120.24L331.61,119.95L332.36,119.66L333.05,119.37L333.62,119.08L334.1,118.79L334.5,118.5L334.88,118.21L335.28,117.92L335.69,117.63L336.09,117.34L336.46,117.05L336.78,116.76L337.05,116.47L337.29,116.18L337.52,115.89L337.74,115.6L338.16,115.02L338.36,114.73L338.55,114.44L338.71,114.15L338.86,113.86L338.97,113.57L339.04,113.28L339.22,112.41L339.3,112.12L339.51,111.25L339.59,110.96L339.69,110.67L339.95,110.09L340.06,109.8L340.14,109.51L340.18,109.22L340.17,108.93L340.14,108.64L340.06,108.06L340.04,107.77L340.06,107.48L340.1,107.19L340.18,106.9L340.36,106.32L340.43,106.03L340.48,105.74L340.49,105.45L340.49,104.87L340.48,104.58L340.48,103.71L340.49,103.42L340.55,102.55L340.56,102.26L340.58,101.97L340.62,101.68L340.72,101.1L340.76,100.81L340.78,100.52L340.78,100.23L340.75,99.94L340.71,99.65L340.68,99.36L340.67,99.07L340.68,98.78L340.7,98.49L340.71,98.2L340.73,97.91L340.73,97.62L340.74,97.33L340.74,97.04L340.78,96.46L340.81,95.59L340.8,95.3L340.8,94.14L340.81,93.85L340.83,93.56L340.84,93.27L340.86,92.98L340.86,91.81L340.83,90.94L340.83,90.65L340.84,90.36L340.84,90.07L340.85,89.78L340.85,89.49L340.86,89.2L340.86,88.33L340.85,88.04L340.85,87.46L340.87,86.88L340.87,86.59L340.88,86.3L340.88,86.01L340.9,85.72L340.93,84.85L340.93,83.98L340.92,83.69L340.92,83.4L340.9,82.82L340.9,82.53L340.89,82.24L340.89,81.37L340.91,80.79L340.91,79.34L340.87,78.18L340.91,77.02L340.91,75.86L340.92,75.57L340.92,74.99L340.94,74.41L340.94,74.12L340.95,73.83L340.95,59.9L340.93,59.32L340.93,59.03L340.92,58.74L340.92,57.29L340.94,56.71L340.94,56.42L340.95,56.13L340.95,54.68L340.94,54.39L340.94,54.1L340.92,53.52L340.92,52.07L340.99,52.07L340.99,53.52L340.97,54.1L340.97,54.39L340.96,54.68L340.96,56.13L340.97,56.42L340.97,56.71L340.99,57.29L340.99,58.74L340.97,59.32L340.97,59.61L340.96,59.9L340.96,60.48L340.95,60.77L340.95,73.25L340.96,73.54L340.96,74.12L340.99,74.99L340.99,76.15L341,76.44L341,77.02L341.03,77.89L341.03,78.47L341,79.34L341,79.63L340.99,79.92L340.99,80.21L341,80.5L341,80.79L341.01,81.08L341.01,81.37L341.02,81.66L341.02,82.24L341,82.82L341,83.11L340.99,83.4L340.99,83.69L340.98,83.98L340.98,84.27L340.97,84.56L341.04,86.59L341.04,86.88L341.05,87.17L341.05,87.46L341.06,87.75L341.06,88.04L341.05,88.33L341.05,89.49L341.07,90.07L341.07,90.36L341.08,90.65L341.08,90.94L341.05,91.81L341.05,92.1L341.04,92.39L341.05,92.69L341.05,92.98L341.06,93.27L341.08,93.56L341.09,93.85L341.11,94.14L341.11,95.01L341.1,95.3L341.1,95.88L341.12,96.17L341.13,96.46L341.15,96.75L341.18,97.62L341.18,97.91L341.19,98.2L341.23,98.78L341.24,99.07L341.22,99.36L341.13,100.23L341.12,100.52L341.14,100.81L341.29,101.68L341.32,101.97L341.42,103.42L341.43,103.71L341.43,104.29L341.42,104.58L341.42,104.87L341.41,105.16L341.43,105.74L341.48,106.03L341.55,106.32L341.73,106.9L341.81,107.19L341.85,107.48L341.86,107.77L341.85,108.06L341.81,108.35L341.76,108.64L341.73,108.93L341.73,109.22L341.77,109.51L341.84,109.8L341.96,110.09L342.22,110.67L342.32,110.96L342.4,111.25L342.61,112.12L342.69,112.41L342.81,112.99L342.86,113.28L342.94,113.57L343.05,113.86L343.19,114.15L343.36,114.44L343.74,115.02L343.96,115.31L344.17,115.6L344.39,115.89L344.62,116.18L344.86,116.47L345.13,116.76L345.45,117.05L345.81,117.34L346.21,117.63L346.63,117.92L347.03,118.21L347.41,118.5L347.81,118.79L348.28,119.08L348.86,119.37L349.54,119.66L350.3,119.95L351.9,120.53L352.72,120.82L353.57,121.11L354.52,121.4L355.64,121.69L357,121.98L358.6,122.27L360.35,122.56L362.14,122.85L363.88,123.14L365.51,123.43L367.06,123.72L368.55,124.02L370.02,124.31L371.42,124.6L372.64,124.89L373.57,125.18L374.17,125.47L374.49,125.76L374.64,126.05L374.73,126.34L374.77,126.63L374.71,126.92L374.48,127.21L374.06,127.5L373.48,127.79L372.76,128.08L371.88,128.37L370.8,128.66L369.56,128.95L368.2,129.24L363.94,130.11L362.51,130.4L361.12,130.69L359.79,130.98L358.56,131.27L357.44,131.56L356.41,131.85L354.43,132.43L353.41,132.72L352.37,133.01L351.34,133.3L350.36,133.59L349.44,133.88L348.58,134.17L347.79,134.46L347.07,134.75L346.43,135.04L345.9,135.33L345.47,135.62L345.13,135.91L344.87,136.2L344.66,136.49L344.5,136.78L344.37,137.07L344.13,137.65L343.96,137.94L343.76,138.23L343.28,138.81L343.07,139.1L342.93,139.39L342.83,139.68L342.76,139.97L342.67,140.26L342.55,140.55L342.39,140.84L342.05,141.42L341.91,141.71L341.83,142L341.8,142.29L341.8,142.58L341.89,143.45L341.9,143.74L341.9,144.03L341.88,144.32L341.85,144.61L341.77,145.19L341.67,145.77L341.61,146.06L341.54,146.35L341.42,146.93L341.39,147.22L341.37,147.51L341.37,147.8L341.39,148.09L341.42,148.38L341.5,148.96L341.52,149.25L341.52,149.54L341.5,149.83L341.47,150.12L341.37,150.7L341.33,150.99L341.3,151.28L341.26,151.86L341.23,152.15L341.15,152.73L341.12,153.02L341.1,153.31L341.09,153.6L341.09,153.89L341.12,154.76L341.11,155.05L341.1,155.35L341.06,155.93L341.06,156.8L341.07,157.09L341.07,157.38L341.08,157.67L341.08,157.96L341.07,158.25L341.07,158.54L341.06,158.83L341.04,159.12L341.02,159.7L341.02,160.57L341.04,161.15L341.06,161.44L341.08,162.02L341.08,162.6L341.02,163.47L341.01,163.76L341.01,164.05L341.02,164.34L341.02,164.63L341.03,164.92L341.03,165.79L341.02,166.08L341.02,166.37L340.98,167.53L340.98,167.82L340.97,168.11L340.97,168.69L340.98,168.98L340.98,169.27L341,169.85L341,170.43L340.99,170.72L340.99,171.88L341,172.17L341,172.75L340.99,173.04L340.99,173.33L340.98,173.62L340.98,174.49L341.01,175.36L341.01,176.23L340.97,177.39L340.97,177.68L340.96,177.97L340.97,178.26L340.97,178.55L340.98,178.84L340.98,179.71L340.97,180L340.97,180.29L340.96,180.58L340.97,180.87L340.97,181.16L340.98,181.45L340.98,183.19L340.99,183.48L340.99,183.77L341,184.06L341,184.35L340.99,184.64L340.99,184.93L340.97,185.51L340.97,185.8L340.96,186.09L340.96,187.26L340.97,187.55L340.97,187.84L340.98,188.13L340.98,189L340.96,189.58L340.96,190.16L340.95,190.45L340.95,194.8L340.96,195.09L340.96,195.67L340.98,196.25L340.98,200.31L340.93,200.31Z" style="fill:rgb(251,128,114);fill-rule:nonzero;stroke:rgb(51,51,51);stroke-width:1.07px;"/>
                    <path d="M420.98,199.5L420.98,199.22L420.99,198.93L420.99,198.65L421,198.37L421,198.08L421.01,197.8L421.01,185.33L421,185.05L421,184.48L420.98,183.92L420.98,182.78L420.99,182.5L420.98,182.22L420.98,181.08L421,180.52L421,179.95L421.01,179.67L421.01,178.82L421,178.53L421,178.25L420.99,177.97L420.98,177.68L420.94,177.12L420.92,176.83L420.92,176.55L420.91,176.27L420.92,175.98L420.96,175.42L420.97,175.13L420.99,174.85L421,174.57L421,173.43L420.99,173.15L420.97,172.87L420.96,172.58L420.95,172.3L420.95,172.02L420.96,171.73L420.98,171.17L420.99,170.88L421,170.6L421,169.47L420.99,169.18L420.97,168.9L420.96,168.62L420.95,168.33L420.95,167.77L420.96,167.48L420.96,167.2L420.97,166.92L420.97,166.63L420.98,166.35L420.98,165.5L420.97,165.22L420.97,164.93L420.95,164.37L420.93,164.08L420.9,163.8L420.88,163.52L420.86,163.23L420.84,162.67L420.85,162.38L420.85,162.1L420.86,161.82L420.86,161.53L420.85,161.25L420.83,160.97L420.8,160.68L420.77,160.4L420.75,160.12L420.75,159.83L420.79,159.27L420.83,158.98L420.87,158.42L420.87,156.43L420.85,155.87L420.83,155.58L420.81,155.3L420.8,155.02L420.79,154.73L420.79,154.45L420.8,154.17L420.8,153.32L420.79,153.03L420.78,152.75L420.76,152.47L420.74,152.18L420.68,151.62L420.66,151.33L420.65,151.05L420.63,150.77L420.62,150.48L420.6,150.2L420.6,149.92L420.61,149.63L420.65,149.07L420.66,148.78L420.67,148.5L420.66,148.22L420.66,147.93L420.64,147.37L420.63,147.08L420.61,146.8L420.6,146.52L420.58,146.23L420.52,145.67L420.47,145.38L420.37,144.82L420.34,144.53L420.31,144.25L420.27,143.97L420.23,143.68L420.17,143.4L420.09,143.12L420.01,142.83L419.92,142.55L419.85,142.27L419.8,141.98L419.78,141.7L419.8,141.42L419.83,141.13L419.84,140.85L419.82,140.57L419.77,140.28L419.68,140L419.58,139.72L419.46,139.43L419.33,139.15L419.21,138.87L419.09,138.58L419,138.3L418.94,138.02L418.89,137.73L418.83,137.45L418.72,137.17L418.55,136.88L418.31,136.6L418.03,136.32L417.77,136.03L417.52,135.75L417.29,135.47L417.03,135.18L416.72,134.9L416.34,134.62L415.89,134.33L415.38,134.05L414.83,133.77L414.26,133.48L413.66,133.2L413.03,132.92L412.33,132.63L411.52,132.35L410.58,132.07L409.52,131.78L408.37,131.5L407.16,131.22L405.94,130.93L404.69,130.65L403.4,130.37L402.03,130.08L400.58,129.8L399.08,129.52L397.58,129.23L396.13,128.95L394.76,128.67L393.42,128.38L392.08,128.1L389.23,127.53L387.82,127.25L386.6,126.97L385.7,126.68L385.17,126.4L384.98,126.12L385.1,125.83L385.49,125.55L386.14,125.27L387,124.98L388.01,124.7L389.13,124.42L390.28,124.13L391.47,123.85L392.7,123.57L394.03,123.28L395.52,123L397.16,122.72L398.9,122.43L400.64,122.15L402.3,121.87L403.83,121.58L405.23,121.3L406.48,121.02L407.6,120.73L408.61,120.45L409.49,120.17L410.25,119.88L410.87,119.6L411.37,119.32L411.8,119.03L412.23,118.75L412.7,118.47L413.2,118.18L413.72,117.9L414.19,117.62L414.62,117.33L415.02,117.05L415.41,116.77L415.79,116.48L416.14,116.2L416.43,115.92L416.65,115.63L416.83,115.35L416.99,115.07L417.17,114.78L417.37,114.5L417.6,114.22L417.84,113.93L418.07,113.65L418.28,113.37L418.45,113.08L418.56,112.8L418.63,112.52L418.66,112.23L418.68,111.95L418.73,111.67L418.84,111.38L419.02,111.1L419.25,110.82L419.48,110.53L419.65,110.25L419.73,109.97L419.75,109.68L419.71,109.12L419.73,108.83L419.77,108.55L419.82,108.27L419.87,107.98L419.93,107.42L419.97,107.13L420.02,106.85L420.08,106.57L420.15,106.28L420.22,106L420.3,105.72L420.36,105.43L420.41,105.15L420.43,104.87L420.43,104.58L420.42,104.3L420.42,104.02L420.45,103.73L420.5,103.45L420.56,103.17L420.61,102.88L420.64,102.6L420.64,102.32L420.63,102.03L420.62,101.75L420.63,101.47L420.66,101.18L420.7,100.62L420.72,100.33L420.73,100.05L420.75,99.77L420.76,99.48L420.78,99.2L420.78,98.63L420.77,98.35L420.75,98.07L420.73,97.78L420.67,97.22L420.64,96.93L420.63,96.65L420.65,96.37L420.69,96.08L420.75,95.8L420.82,95.52L420.88,95.23L420.91,94.95L420.93,94.67L420.93,94.1L420.92,93.82L420.92,93.53L420.93,93.25L420.93,92.97L420.94,92.68L420.94,92.12L420.93,91.83L420.91,91.27L420.9,90.98L420.9,90.7L420.91,90.42L420.92,90.13L420.96,89.57L420.98,89.28L420.98,88.72L420.97,88.43L420.95,87.87L420.94,87.58L420.94,87.02L420.95,86.73L420.97,86.17L420.99,85.88L420.99,85.6L421,85.32L421,84.75L420.99,84.47L420.98,84.18L420.98,83.9L420.97,83.62L420.96,83.33L420.96,83.05L420.95,82.77L420.95,81.92L420.96,81.63L420.96,81.07L420.97,80.78L420.97,80.5L420.98,80.22L420.99,79.93L421,79.65L421,78.52L420.99,78.23L420.99,77.95L420.98,77.67L420.98,77.1L420.99,76.82L420.99,76.53L421,76.25L421,75.97L421.01,75.68L421.01,73.98L421,73.7L421,73.42L420.99,73.13L420.98,72.85L420.96,72.57L420.95,72.28L420.95,72L420.96,71.72L420.97,71.43L420.99,70.87L421,70.58L421,70.3L421.01,70.02L421.01,67.18L421,66.9L421,66.33L420.98,65.77L420.98,64.92L420.99,64.63L421,64.35L421,63.78L421.01,63.5L421.01,61.23L421,60.95L421,60.67L420.99,60.38L420.98,60.1L420.96,59.82L420.95,59.53L420.93,58.97L420.93,58.12L420.94,57.83L420.96,57.55L420.97,57.27L420.98,56.98L420.99,56.7L420.99,56.42L420.98,56.13L420.96,55.57L420.96,54.72L421.05,54.72L421.05,55.57L421.03,56.13L421.03,56.42L421.02,56.7L421.03,56.98L421.04,57.27L421.06,57.55L421.07,57.83L421.08,58.12L421.08,58.97L421.06,59.53L421.05,59.82L421.04,60.1L421.02,60.38L421.02,60.67L421.01,60.95L421.01,64.07L421.02,64.35L421.02,64.63L421.03,64.92L421.03,65.2L421.04,65.48L421.03,65.77L421.03,66.05L421.02,66.33L421.01,66.62L421.01,70.58L421.02,70.87L421.03,71.15L421.05,71.43L421.06,71.72L421.06,72.28L421.05,72.57L421.04,72.85L421.02,73.13L421.02,73.42L421.01,73.7L421.01,75.97L421.02,76.25L421.02,76.53L421.03,76.82L421.03,77.1L421.04,77.38L421.03,77.67L421.03,77.95L421.02,78.23L421.01,78.52L421.01,79.37L421.02,79.65L421.02,79.93L421.03,80.22L421.05,80.78L421.05,81.07L421.06,81.35L421.06,83.05L421.05,83.33L421.05,83.62L421.03,84.18L421.02,84.47L421.02,84.75L421.01,85.03L421.02,85.32L421.02,85.6L421.03,85.88L421.04,86.17L421.06,86.73L421.07,87.02L421.07,87.58L421.06,87.87L421.04,88.43L421.03,88.72L421.03,89L421.04,89.28L421.05,89.57L421.09,90.13L421.11,90.42L421.11,90.98L421.1,91.27L421.08,91.83L421.08,92.97L421.09,93.25L421.09,94.67L421.1,94.95L421.14,95.23L421.2,95.52L421.26,95.8L421.33,96.08L421.37,96.37L421.38,96.65L421.37,96.93L421.35,97.22L421.29,97.78L421.26,98.07L421.24,98.63L421.23,98.92L421.25,99.48L421.27,99.77L421.28,100.05L421.3,100.33L421.31,100.62L421.33,100.9L421.36,101.18L421.38,101.47L421.39,101.75L421.39,102.03L421.38,102.32L421.38,102.6L421.41,102.88L421.46,103.17L421.52,103.45L421.57,103.73L421.59,104.02L421.59,104.3L421.58,104.58L421.58,104.87L421.6,105.15L421.65,105.43L421.72,105.72L421.79,106L421.87,106.28L421.94,106.57L422,106.85L422.04,107.13L422.08,107.42L422.11,107.7L422.15,107.98L422.2,108.27L422.25,108.55L422.29,108.83L422.3,109.12L422.29,109.4L422.27,109.68L422.28,109.97L422.37,110.25L422.54,110.53L422.76,110.82L422.99,111.1L423.18,111.38L423.29,111.67L423.33,111.95L423.36,112.23L423.39,112.52L423.45,112.8L423.57,113.08L423.73,113.37L423.94,113.65L424.18,113.93L424.42,114.22L424.64,114.5L424.84,114.78L425.02,115.07L425.18,115.35L425.36,115.63L425.58,115.92L425.87,116.2L426.23,116.48L426.61,116.77L427.39,117.33L427.82,117.62L428.3,117.9L428.81,118.18L429.32,118.47L429.78,118.75L430.21,119.03L430.64,119.32L431.14,119.6L431.77,119.88L432.52,120.17L433.41,120.45L434.41,120.73L435.53,121.02L436.79,121.3L438.18,121.58L439.72,121.87L441.38,122.15L443.12,122.43L444.86,122.72L446.5,123L447.98,123.28L449.32,123.57L450.55,123.85L451.73,124.13L452.89,124.42L454,124.7L455.02,124.98L455.88,125.27L456.52,125.55L456.91,125.83L457.03,126.12L456.84,126.4L456.31,126.68L455.41,126.97L454.2,127.25L452.79,127.53L451.34,127.82L449.93,128.1L448.59,128.38L447.26,128.67L445.88,128.95L444.43,129.23L442.93,129.52L441.43,129.8L439.98,130.08L438.61,130.37L437.32,130.65L436.08,130.93L434.85,131.22L433.65,131.5L432.49,131.78L431.43,132.07L430.5,132.35L429.69,132.63L428.99,132.92L428.35,133.2L427.76,133.48L427.18,133.77L426.63,134.05L426.12,134.33L425.68,134.62L425.3,134.9L424.98,135.18L424.73,135.47L424.25,136.03L423.98,136.32L423.71,136.6L423.47,136.88L423.29,137.17L423.19,137.45L423.13,137.73L423.08,138.02L423.01,138.3L422.92,138.58L422.81,138.87L422.68,139.15L422.56,139.43L422.44,139.72L422.33,140L422.25,140.28L422.19,140.57L422.17,140.85L422.18,141.13L422.21,141.42L422.23,141.7L422.22,141.98L422.17,142.27L422.01,142.83L421.92,143.12L421.85,143.4L421.79,143.68L421.74,143.97L421.68,144.53L421.64,144.82L421.54,145.38L421.5,145.67L421.46,145.95L421.44,146.23L421.42,146.52L421.4,146.8L421.39,147.08L421.37,147.37L421.37,147.65L421.36,147.93L421.35,148.22L421.35,148.78L421.36,149.07L421.4,149.63L421.41,149.92L421.41,150.2L421.4,150.48L421.38,150.77L421.37,151.05L421.35,151.33L421.33,151.62L421.27,152.18L421.25,152.47L421.24,152.75L421.22,153.03L421.22,153.32L421.21,153.6L421.21,153.88L421.22,154.17L421.22,155.02L421.18,155.58L421.16,155.87L421.15,156.15L421.15,157L421.14,157.28L421.14,158.13L421.15,158.42L421.16,158.7L421.19,158.98L421.22,159.27L421.25,159.55L421.26,159.83L421.26,160.12L421.22,160.68L421.19,160.97L421.17,161.25L421.16,161.53L421.16,162.1L421.17,162.38L421.17,162.95L421.16,163.23L421.13,163.52L421.11,163.8L421.08,164.08L421.07,164.37L421.05,164.65L421.05,164.93L421.04,165.22L421.04,165.5L421.03,165.78L421.04,166.07L421.04,166.63L421.05,166.92L421.05,167.2L421.06,167.48L421.06,167.77L421.07,168.05L421.06,168.33L421.05,168.62L421.03,169.18L421.02,169.47L421.01,169.75L421.01,170.6L421.02,170.88L421.03,171.17L421.04,171.45L421.06,171.73L421.06,172.3L421.05,172.58L421.04,172.87L421.02,173.43L421.01,173.72L421.01,174.28L421.02,174.57L421.04,175.13L421.06,175.42L421.08,175.7L421.09,175.98L421.1,176.27L421.1,176.55L421.09,176.83L421.07,177.12L421.05,177.4L421.04,177.68L421.02,177.97L421.01,178.25L421.01,180.23L421.02,180.52L421.02,180.8L421.03,181.08L421.04,181.37L421.04,181.65L421.03,181.93L421.03,183.07L421.04,183.35L421.03,183.63L421.03,183.92L421.02,184.2L421.02,184.48L421.01,184.77L421.01,198.08L421.02,198.37L421.02,198.65L421.03,198.93L421.03,199.22L421.04,199.5L420.98,199.5Z" style="fill:rgb(128,177,211);fill-rule:nonzero;stroke:rgb(51,51,51);stroke-width:1.07px;"/>
                    <path d="M501.04,198.73L501.04,198.16L501.05,197.87L501.05,197.3L501.06,197.01L501.06,195.58L501.05,195.29L501.05,195L501.04,194.72L501.02,194.14L501.02,193L501.03,192.71L501.03,192.42L501.04,192.13L501.03,191.85L501.03,191.56L501.02,191.27L501.01,190.99L500.99,190.41L500.99,189.55L501,189.27L501.01,188.98L501.01,188.69L501.02,188.4L501.02,188.12L501.03,187.83L501.03,187.26L501.04,186.97L501.04,185.82L501.03,185.54L501.03,183.53L501.04,183.24L501.04,182.95L501.05,182.67L501.05,181.23L501.04,180.94L501.04,179.51L501.05,179.22L501.05,177.79L501.04,177.5L501.04,177.22L501.02,176.64L501.02,175.49L501.03,175.21L501.03,174.35L501.02,174.06L501.02,172.91L501.03,172.62L501.03,172.34L501.04,172.05L501.03,171.76L501.03,171.48L501.01,170.9L501,170.62L501,169.47L501.01,169.18L501.01,168.89L501,168.61L500.96,168.03L500.94,167.75L500.92,167.46L500.91,167.17L500.9,166.89L500.91,166.6L500.93,166.31L500.95,166.03L500.98,165.74L501,165.16L501,164.88L500.98,164.3L500.97,164.02L500.95,163.73L500.94,163.44L500.94,162.58L500.93,162.3L500.91,162.01L500.85,161.43L500.8,161.15L500.76,160.86L500.73,160.57L500.71,160.29L500.7,160L500.71,159.71L500.72,159.43L500.76,158.85L500.77,158.57L500.78,158.28L500.78,157.99L500.77,157.71L500.77,157.42L500.75,156.84L500.75,155.7L500.73,155.12L500.71,154.84L500.67,154.26L500.65,153.98L500.64,153.69L500.62,153.4L500.61,153.11L500.59,152.83L500.55,152.25L500.53,151.97L500.51,151.68L500.48,151.39L500.46,151.11L500.38,150.53L500.34,150.25L500.28,149.96L500.23,149.67L500.17,149.38L500.13,149.1L500.08,148.81L500.06,148.52L500.04,148.24L500.03,147.95L500.03,147.09L500.01,146.8L499.99,146.52L499.91,145.94L499.86,145.65L499.81,145.37L499.69,144.79L499.63,144.51L499.49,143.93L499.41,143.65L499.34,143.36L499.26,143.07L499.17,142.79L498.87,141.92L498.76,141.64L498.56,141.06L498.46,140.78L498.33,140.49L498.17,140.2L497.95,139.92L497.67,139.63L497.34,139.34L496.96,139.06L496.14,138.48L495.75,138.2L495.39,137.91L495.09,137.62L494.85,137.33L494.67,137.05L494.37,136.47L494.2,136.19L493.99,135.9L493.73,135.61L493.41,135.33L493.04,135.04L492.62,134.75L492.14,134.47L491.62,134.18L491.06,133.89L490.47,133.6L489.85,133.32L489.21,133.03L488.53,132.74L487.83,132.46L487.08,132.17L486.29,131.88L485.44,131.6L484.53,131.31L483.6,131.02L482.64,130.74L481.68,130.45L480.73,130.16L479.83,129.87L479,129.59L478.27,129.3L477.66,129.01L477.14,128.73L476.72,128.44L476.35,128.15L476.03,127.87L475.72,127.58L475.42,127.29L475.12,127.01L474.83,126.72L474.57,126.43L474.37,126.14L474.27,125.86L474.29,125.57L474.42,125.28L474.67,125L475,124.71L475.43,124.42L475.93,124.14L476.54,123.85L477.25,123.56L478.09,123.28L479.05,122.99L480.09,122.7L481.16,122.42L482.23,122.13L483.26,121.84L484.23,121.55L485.15,121.27L486.03,120.98L486.88,120.69L487.72,120.41L489.36,119.83L490.18,119.55L491.01,119.26L491.82,118.97L492.61,118.69L493.35,118.4L494.02,118.11L494.62,117.82L495.14,117.54L495.59,117.25L495.99,116.96L496.35,116.68L496.68,116.39L497,116.1L497.29,115.82L497.56,115.53L497.8,115.24L498,114.96L498.18,114.67L498.48,114.09L498.61,113.81L498.75,113.52L498.88,113.23L499.01,112.95L499.14,112.66L499.26,112.37L499.37,112.09L499.49,111.8L499.6,111.51L499.7,111.23L499.8,110.94L499.89,110.65L499.96,110.36L500.02,110.08L500.08,109.79L500.13,109.5L500.17,109.22L500.22,108.93L500.25,108.64L500.28,108.36L500.3,108.07L500.31,107.78L500.31,107.21L500.27,106.63L500.25,106.35L500.24,106.06L500.24,105.77L500.27,105.49L500.31,105.2L500.36,104.91L500.42,104.63L500.54,104.05L500.59,103.77L500.64,103.48L500.67,103.19L500.7,102.91L500.73,102.04L500.74,101.76L500.78,101.18L500.8,100.9L500.82,100.61L500.82,100.04L500.8,99.46L500.8,98.89L500.82,98.6L500.83,98.31L500.85,98.03L500.87,97.74L500.88,97.45L500.88,97.17L500.89,96.88L500.89,96.31L500.91,95.73L500.92,95.45L500.94,94.87L500.94,94.58L500.93,94.3L500.93,94.01L500.92,93.72L500.91,93.44L500.9,93.15L500.9,92.29L500.91,92L500.92,91.72L500.94,91.43L500.96,90.85L500.96,90.28L500.97,89.99L500.97,89.71L500.99,89.13L501,88.85L501,87.99L500.99,87.7L500.99,86.55L501,86.26L501.01,85.98L501.01,85.69L501.02,85.4L501.02,83.4L501.03,83.11L501.03,81.96L501.02,81.67L501.01,81.39L501.01,81.1L501,80.81L501,80.53L500.99,80.24L500.99,78.52L500.98,78.23L500.98,77.66L500.99,77.37L500.99,77.08L501,76.8L501,76.51L501.01,76.22L501.01,75.94L501.02,75.65L501.02,75.36L501.03,75.07L501.03,74.79L501.04,74.5L501.04,73.07L501.03,72.78L501.03,71.06L501.04,70.77L501.04,70.2L501.05,69.91L501.05,68.48L501.04,68.19L501.04,64.75L501.05,64.46L501.05,63.89L501.06,63.6L501.06,53.84L501.05,53.56L501.05,52.98L501.04,52.7L501.04,52.12L501.08,52.12L501.08,52.7L501.07,52.98L501.07,53.56L501.06,53.84L501.06,63.6L501.07,63.89L501.07,64.46L501.08,64.75L501.08,68.19L501.07,68.48L501.07,69.91L501.08,70.2L501.08,70.48L501.09,70.77L501.09,72.78L501.08,73.07L501.08,74.5L501.09,74.79L501.09,75.07L501.1,75.36L501.1,75.65L501.11,75.94L501.11,76.22L501.12,76.51L501.12,76.8L501.13,77.08L501.14,77.37L501.14,78.23L501.13,78.52L501.13,80.53L501.12,80.81L501.11,81.1L501.11,81.39L501.1,81.67L501.09,81.96L501.09,83.11L501.1,83.4L501.1,85.4L501.11,85.69L501.11,85.98L501.12,86.26L501.13,86.55L501.13,86.84L501.14,87.12L501.13,87.41L501.13,87.7L501.12,87.99L501.12,88.85L501.13,89.13L501.15,89.71L501.15,89.99L501.16,90.28L501.16,90.85L501.17,91.14L501.19,91.43L501.2,91.72L501.21,92L501.22,92.29L501.22,93.15L501.21,93.44L501.2,93.72L501.19,94.01L501.19,94.3L501.18,94.58L501.18,94.87L501.2,95.45L501.21,95.73L501.23,96.31L501.23,96.59L501.24,96.88L501.24,97.45L501.25,97.74L501.27,98.03L501.29,98.31L501.3,98.6L501.32,98.89L501.32,99.46L501.3,100.04L501.3,100.61L501.32,100.9L501.34,101.18L501.38,101.76L501.39,102.04L501.42,102.91L501.45,103.19L501.48,103.48L501.53,103.77L501.58,104.05L501.7,104.63L501.76,104.91L501.81,105.2L501.85,105.49L501.88,105.77L501.88,106.06L501.87,106.35L501.85,106.63L501.81,107.21L501.81,107.78L501.82,108.07L501.84,108.36L501.87,108.64L501.9,108.93L501.95,109.22L501.99,109.5L502.04,109.79L502.1,110.08L502.16,110.36L502.23,110.65L502.32,110.94L502.42,111.23L502.52,111.51L502.63,111.8L502.75,112.09L502.86,112.37L502.98,112.66L503.11,112.95L503.24,113.23L503.37,113.52L503.51,113.81L503.64,114.09L503.94,114.67L504.12,114.96L504.33,115.24L504.56,115.53L504.83,115.82L505.12,116.1L505.44,116.39L505.77,116.68L506.13,116.96L506.53,117.25L506.98,117.54L507.5,117.82L508.1,118.11L508.77,118.4L509.51,118.69L510.3,118.97L511.11,119.26L511.94,119.55L512.76,119.83L514.4,120.41L515.24,120.69L516.09,120.98L516.97,121.27L517.89,121.55L518.86,121.84L519.89,122.13L520.96,122.42L522.03,122.7L523.07,122.99L524.03,123.28L524.87,123.56L525.58,123.85L526.19,124.14L526.69,124.42L527.12,124.71L527.46,125L527.7,125.28L527.83,125.57L527.85,125.86L527.75,126.14L527.55,126.43L527.29,126.72L527,127.01L526.7,127.29L526.4,127.58L526.09,127.87L525.77,128.15L525.41,128.44L524.98,128.73L524.47,129.01L523.85,129.3L523.12,129.59L522.29,129.87L521.39,130.16L520.44,130.45L519.48,130.74L518.52,131.02L517.59,131.31L516.68,131.6L515.83,131.88L515.04,132.17L514.29,132.46L513.59,132.74L512.92,133.03L512.27,133.32L511.65,133.6L511.06,133.89L510.5,134.18L509.98,134.47L509.5,134.75L509.08,135.04L508.71,135.33L508.39,135.61L508.13,135.9L507.92,136.19L507.75,136.47L507.45,137.05L507.27,137.33L507.03,137.62L506.73,137.91L506.37,138.2L505.98,138.48L505.16,139.06L504.78,139.34L504.45,139.63L504.17,139.92L503.95,140.2L503.79,140.49L503.66,140.78L503.56,141.06L503.36,141.64L503.25,141.92L502.95,142.79L502.86,143.07L502.78,143.36L502.71,143.65L502.63,143.93L502.49,144.51L502.43,144.79L502.31,145.37L502.26,145.65L502.22,145.94L502.17,146.23L502.14,146.52L502.11,146.8L502.09,147.09L502.09,147.95L502.08,148.24L502.07,148.52L502.04,148.81L502,149.1L501.95,149.38L501.89,149.67L501.84,149.96L501.78,150.25L501.74,150.53L501.66,151.11L501.64,151.39L501.61,151.68L501.59,151.97L501.57,152.25L501.53,152.83L501.51,153.11L501.5,153.4L501.48,153.69L501.47,153.98L501.45,154.26L501.41,154.84L501.39,155.12L501.37,155.7L501.37,156.84L501.35,157.42L501.35,157.71L501.34,157.99L501.34,158.28L501.35,158.57L501.36,158.85L501.4,159.43L501.41,159.71L501.42,160L501.41,160.29L501.39,160.57L501.36,160.86L501.32,161.15L501.27,161.43L501.21,162.01L501.19,162.3L501.18,162.58L501.18,163.44L501.16,164.02L501.14,164.3L501.12,164.88L501.12,165.16L501.14,165.74L501.17,166.03L501.19,166.31L501.21,166.6L501.22,166.89L501.22,167.17L501.18,167.75L501.16,168.03L501.12,168.61L501.12,168.89L501.11,169.18L501.12,169.47L501.12,170.62L501.11,170.9L501.09,171.48L501.09,171.76L501.08,172.05L501.09,172.34L501.09,172.62L501.1,172.91L501.1,173.2L501.11,173.49L501.1,173.77L501.1,174.06L501.09,174.35L501.09,175.21L501.1,175.49L501.1,176.64L501.08,177.22L501.08,177.5L501.07,177.79L501.07,179.22L501.08,179.51L501.08,180.94L501.07,181.23L501.07,182.67L501.08,182.95L501.08,183.24L501.09,183.53L501.09,185.54L501.08,185.82L501.08,186.97L501.09,187.26L501.09,187.83L501.1,188.12L501.1,188.4L501.12,188.98L501.12,189.27L501.13,189.55L501.13,190.41L501.11,190.99L501.1,191.27L501.09,191.56L501.09,191.85L501.08,192.13L501.09,192.42L501.09,192.71L501.1,193L501.1,194.14L501.08,194.72L501.07,195L501.07,195.58L501.06,195.86L501.06,197.01L501.07,197.3L501.07,197.87L501.08,198.16L501.08,198.73L501.04,198.73Z" style="fill:rgb(253,180,98);fill-rule:nonzero;stroke:rgb(51,51,51);stroke-width:1.07px;"/>
                    <path d="M581.09,200.03L581.09,199.75L581.1,199.47L581.1,198.91L581.11,198.63L581.11,193.3L581.1,193.02L581.1,192.74L581.08,192.18L581.08,191.9L581.07,191.62L581.07,190.78L581.08,190.5L581.08,189.38L581.07,189.1L581.07,188.82L581.06,188.54L581.06,187.41L581.07,187.13L581.07,186.85L581.08,186.57L581.08,186.01L581.09,185.73L581.09,185.17L581.1,184.89L581.1,183.77L581.09,183.49L581.09,183.21L581.07,182.65L581.07,182.37L581.06,182.09L581.06,181.81L581.05,181.53L581.05,180.69L581.06,180.4L581.06,180.12L581.07,179.84L581.07,176.76L581.06,176.48L581.06,174.52L581.07,174.24L581.07,173.12L581.06,172.83L581.06,170.59L581.05,170.31L581.05,167.51L581.04,167.23L581.04,165.55L581.03,165.26L581.03,164.98L581.01,164.7L581,164.42L580.96,163.86L580.94,163.3L580.94,162.74L580.95,162.46L580.97,162.18L580.99,161.62L581.01,161.34L581.01,160.78L580.99,160.22L580.93,159.38L580.92,159.1L580.92,157.98L580.91,157.7L580.89,157.41L580.83,156.85L580.79,156.57L580.76,156.29L580.74,156.01L580.73,155.73L580.73,154.89L580.7,154.05L580.64,153.21L580.63,152.93L580.63,152.65L580.64,152.37L580.72,151.25L580.73,150.97L580.72,150.69L580.7,150.41L580.67,150.13L580.63,149.84L580.59,149.56L580.54,149.28L580.5,149L580.45,148.72L580.42,148.44L580.38,148.16L580.36,147.88L580.33,147.6L580.31,147.32L580.28,146.48L580.28,145.92L580.27,145.64L580.25,145.36L580.22,145.08L580.18,144.8L580.12,144.52L580.07,144.24L580.01,143.96L579.96,143.68L579.92,143.4L579.87,143.12L579.84,142.84L579.8,142.56L579.75,142.28L579.71,141.99L579.61,141.43L579.49,140.87L579.33,140.31L579.22,140.03L579.1,139.75L578.95,139.47L578.79,139.19L578.45,138.63L578.29,138.35L578.01,137.79L577.88,137.51L577.73,137.23L577.57,136.95L577.38,136.67L577.15,136.39L576.9,136.11L576.64,135.83L575.8,134.99L575.51,134.71L575.2,134.42L574.86,134.14L574.47,133.86L574.01,133.58L573.48,133.3L572.87,133.02L572.21,132.74L571.51,132.46L570.79,132.18L570.08,131.9L569.4,131.62L568.75,131.34L568.12,131.06L567.48,130.78L566.79,130.5L566.02,130.22L565.16,129.94L564.21,129.66L563.23,129.38L562.27,129.1L561.38,128.82L560.63,128.54L560.01,128.26L559.52,127.98L558.66,127.42L558.19,127.14L557.68,126.85L556.58,126.29L556.08,126.01L555.65,125.73L555.3,125.45L555.03,125.17L554.84,124.89L554.72,124.61L554.67,124.33L554.71,124.05L554.85,123.77L555.12,123.49L555.51,123.21L556.01,122.93L556.59,122.65L557.87,122.09L559.19,121.53L559.87,121.25L560.58,120.97L561.31,120.69L562.07,120.41L562.85,120.13L563.66,119.85L564.49,119.57L565.35,119.29L566.23,119L567.14,118.72L569,118.16L569.91,117.88L570.77,117.6L571.56,117.32L572.25,117.04L572.85,116.76L573.36,116.48L573.79,116.2L574.17,115.92L574.52,115.64L575.48,114.8L575.81,114.52L576.15,114.24L576.51,113.96L577.21,113.4L577.53,113.12L577.83,112.84L578.09,112.56L578.34,112.28L578.56,112L578.76,111.72L578.94,111.43L579.1,111.15L579.22,110.87L579.3,110.59L579.35,110.31L579.41,109.75L579.42,109.47L579.44,109.19L579.45,108.91L579.47,108.63L579.5,108.35L579.55,108.07L579.61,107.79L579.7,107.51L579.9,106.95L579.99,106.67L580.07,106.39L580.13,106.11L580.17,105.83L580.23,105.27L580.25,104.99L580.28,104.71L580.36,104.15L580.41,103.86L580.56,103.02L580.59,102.74L580.61,102.46L580.62,102.18L580.61,101.9L580.59,101.62L580.56,101.34L580.55,101.06L580.55,100.5L580.57,100.22L580.63,99.66L580.67,99.1L580.67,97.98L580.69,97.42L580.75,96.86L580.79,96.58L580.81,96.3L580.84,96.01L580.85,95.73L580.85,95.45L580.83,94.89L580.81,94.61L580.8,94.33L580.8,93.77L580.81,93.49L580.83,93.21L580.84,92.93L580.88,92.37L580.89,92.09L581.01,90.41L581.02,90.13L581.04,89.85L581.04,88.44L581.03,88.16L581.04,87.88L581.04,87.04L581.05,86.76L581.05,86.2L581.06,85.92L581.06,85.36L581.05,85.08L581.05,84.8L581.02,83.96L581.02,83.68L581.01,83.4L581.01,83.12L581.02,82.84L581.02,82.56L581.04,82L581.04,81.72L581.05,81.44L581.05,80.59L581.04,80.31L581.04,79.75L581.03,79.47L581.03,78.91L581.02,78.63L581.03,78.35L581.03,77.79L581.04,77.51L581.04,75.55L581.06,74.99L581.06,74.71L581.07,74.43L581.07,74.15L581.08,73.87L581.08,72.74L581.09,72.46L581.09,72.18L581.1,71.9L581.1,71.34L581.11,71.06L581.11,67.7L581.1,67.42L581.1,67.14L581.09,66.86L581.09,66.3L581.08,66.02L581.08,64.89L581.09,64.61L581.09,64.33L581.1,64.05L581.1,63.77L581.11,63.49L581.11,59.01L581.1,58.73L581.1,58.45L581.08,57.89L581.08,57.6L581.07,57.32L581.07,57.04L581.08,56.76L581.15,56.76L581.15,57.6L581.14,57.89L581.14,58.17L581.13,58.45L581.13,58.73L581.12,59.01L581.12,59.57L581.11,59.85L581.11,62.65L581.12,62.93L581.12,63.49L581.13,63.77L581.13,64.33L581.14,64.61L581.14,65.17L581.15,65.45L581.15,65.74L581.14,66.02L581.14,66.58L581.13,66.86L581.13,67.14L581.12,67.42L581.12,68.26L581.11,68.54L581.11,70.5L581.12,70.78L581.12,71.34L581.13,71.62L581.13,71.9L581.14,72.18L581.14,73.02L581.15,73.31L581.15,74.15L581.16,74.43L581.16,74.71L581.18,75.27L581.18,75.55L581.19,75.83L581.19,76.11L581.18,76.39L581.18,77.23L581.19,77.51L581.19,77.79L581.2,78.07L581.2,79.47L581.19,79.75L581.19,80.03L581.18,80.31L581.18,80.59L581.17,80.88L581.17,81.16L581.18,81.44L581.18,81.72L581.21,82.56L581.21,83.68L581.2,83.96L581.2,84.24L581.17,85.08L581.17,86.2L581.18,86.48L581.18,87.04L581.19,87.32L581.19,88.73L581.18,89.01L581.18,89.57L581.2,90.13L581.32,91.81L581.33,92.09L581.35,92.37L581.36,92.65L581.42,93.49L581.43,93.77L581.43,94.33L581.41,94.61L581.38,95.45L581.38,95.73L581.39,96.01L581.41,96.3L581.47,96.86L581.51,97.14L581.55,97.7L581.56,97.98L581.56,98.26L581.55,98.54L581.55,98.82L581.57,99.38L581.63,99.94L581.67,100.5L581.68,100.78L581.68,101.06L581.62,101.9L581.61,102.18L581.61,102.46L581.63,102.74L581.71,103.3L581.81,103.86L581.86,104.15L581.94,104.71L582,105.27L582.02,105.55L582.05,105.83L582.09,106.11L582.15,106.39L582.23,106.67L582.53,107.51L582.61,107.79L582.68,108.07L582.72,108.35L582.75,108.63L582.79,109.19L582.8,109.47L582.84,110.03L582.87,110.31L582.93,110.59L583.01,110.87L583.13,111.15L583.28,111.43L583.46,111.72L583.67,112L583.89,112.28L584.13,112.56L584.4,112.84L584.69,113.12L585.02,113.4L585.36,113.68L585.72,113.96L586.42,114.52L586.75,114.8L587.07,115.08L587.38,115.36L587.71,115.64L588.06,115.92L588.44,116.2L588.87,116.48L589.37,116.76L589.97,117.04L590.67,117.32L591.46,117.6L592.32,117.88L593.23,118.16L594.16,118.44L595.08,118.72L595.99,119L596.88,119.29L597.74,119.57L598.57,119.85L599.37,120.13L600.16,120.41L600.92,120.69L601.65,120.97L602.35,121.25L603.03,121.53L603.7,121.81L605,122.37L605.63,122.65L606.22,122.93L606.72,123.21L607.11,123.49L607.37,123.77L607.52,124.05L607.55,124.33L607.5,124.61L607.38,124.89L607.19,125.17L606.93,125.45L606.58,125.73L606.15,126.01L605.64,126.29L605.1,126.57L604.55,126.85L604.03,127.14L603.57,127.42L602.71,127.98L602.21,128.26L601.6,128.54L600.84,128.82L599.96,129.1L599,129.38L598.01,129.66L597.07,129.94L596.2,130.22L595.44,130.5L594.75,130.78L594.11,131.06L593.48,131.34L592.83,131.62L592.15,131.9L591.44,132.18L590.72,132.46L590.01,132.74L589.35,133.02L588.75,133.3L588.22,133.58L587.76,133.86L587.36,134.14L587.02,134.42L586.71,134.71L586.42,134.99L585.86,135.55L585.32,136.11L585.08,136.39L584.85,136.67L584.66,136.95L584.49,137.23L584.35,137.51L584.22,137.79L584.08,138.07L583.93,138.35L583.77,138.63L583.43,139.19L583.27,139.47L583.13,139.75L583,140.03L582.9,140.31L582.81,140.59L582.74,140.87L582.62,141.43L582.52,141.99L582.47,142.28L582.27,143.68L582.22,143.96L582.1,144.52L582.05,144.8L581.97,145.36L581.95,145.64L581.95,146.2L581.94,146.48L581.94,146.76L581.92,147.32L581.9,147.6L581.81,148.44L581.69,149.28L581.64,149.56L581.6,149.84L581.56,150.13L581.53,150.41L581.51,150.69L581.5,150.97L581.5,151.25L581.52,151.53L581.55,151.81L581.59,152.37L581.6,152.65L581.6,152.93L581.59,153.21L581.53,154.05L581.5,154.89L581.5,155.45L581.48,156.01L581.46,156.29L581.34,157.41L581.32,157.7L581.3,158.26L581.31,158.54L581.31,158.82L581.28,159.66L581.22,160.5L581.22,160.78L581.21,161.06L581.23,161.62L581.25,161.9L581.29,163.02L581.29,163.3L581.28,163.58L581.26,163.86L581.25,164.14L581.21,164.7L581.19,165.26L581.19,166.95L581.18,167.23L581.18,170.03L581.17,170.31L581.17,170.87L581.16,171.15L581.16,174.8L581.17,175.08L581.17,175.92L581.16,176.2L581.16,179L581.15,179.28L581.16,179.56L581.16,180.12L581.17,180.4L581.17,181.81L581.16,182.09L581.16,182.37L581.15,182.65L581.15,182.93L581.13,183.49L581.13,184.05L581.12,184.33L581.13,184.61L581.13,185.17L581.14,185.45L581.14,186.01L581.15,186.29L581.15,186.57L581.16,186.85L581.16,187.13L581.17,187.41L581.17,188.25L581.16,188.54L581.16,188.82L581.15,189.1L581.15,189.38L581.14,189.66L581.14,190.22L581.15,190.5L581.15,190.78L581.16,191.06L581.16,191.34L581.15,191.62L581.15,191.9L581.13,192.46L581.13,192.74L581.12,193.02L581.12,193.58L581.11,193.86L581.11,197.79L581.12,198.07L581.12,198.91L581.13,199.19L581.13,199.75L581.14,200.03L581.09,200.03Z" style="fill:rgb(179,222,105);fill-rule:nonzero;stroke:rgb(51,51,51);stroke-width:1.07px;"/>
                    <path d="M52.76,110.95L629.15,110.95" style="fill:none;fill-rule:nonzero;stroke:rgb(255,0,0);stroke-width:1.07px;stroke-dasharray:5.69,5.69;"/>
                    <path d="M52.76,142.1L629.15,142.1" style="fill:none;fill-rule:nonzero;stroke:rgb(0,0,255);stroke-width:1.07px;stroke-dasharray:5.69,5.69;"/>
                </g>
            </g>
            <g>
                <g transform="matrix(1,0,0,1,47.83,207.54)">
                    <text x="-15.164px" y="0px" style="font-family:'ArialMT', 'Arial', sans-serif;font-size:8.8px;fill:rgb(77,77,77);">-5.0</text>
                </g>
                <g transform="matrix(1,0,0,1,47.83,168.61)">
                    <text x="-15.164px" y="0px" style="font-family:'ArialMT', 'Arial', sans-serif;font-size:8.8px;fill:rgb(77,77,77);">-2.5</text>
                </g>
                <g transform="matrix(1,0,0,1,47.83,129.68)">
                    <text x="-12.233px" y="0px" style="font-family:'ArialMT', 'Arial', sans-serif;font-size:8.8px;fill:rgb(77,77,77);">0.0</text>
                </g>
                <g transform="matrix(1,0,0,1,47.83,90.74)">
                    <text x="-12.233px" y="0px" style="font-family:'ArialMT', 'Arial', sans-serif;font-size:8.8px;fill:rgb(77,77,77);">2.5</text>
                </g>
                <g transform="matrix(1,0,0,1,47.83,51.81)">
                    <text x="-12.233px" y="0px" style="font-family:'ArialMT', 'Arial', sans-serif;font-size:8.8px;fill:rgb(77,77,77);">5.0</text>
                </g>
                <g transform="matrix(0.707107,-0.707107,0.707107,0.707107,105.25,221.56)">
                    <text x="-31.805px" y="0px" style="font-family:'ArialMT', 'Arial', sans-serif;font-size:8.8px;fill:rgb(77,77,77);">0h to 1h</text>
                </g>
                <g transform="matrix(0.707107,-0.707107,0.707107,0.707107,185.3,221.56)">
                    <text x="-31.805px" y="0px" style="font-family:'ArialMT', 'Arial', sans-serif;font-size:8.8px;fill:rgb(77,77,77);">1h to 6h</text>
                </g>
                <g transform="matrix(0.707107,-0.707107,0.707107,0.707107,265.36,221.56)">
                    <text x="-36.7px" y="0px" style="font-family:'ArialMT', 'Arial', sans-serif;font-size:8.8px;fill:rgb(77,77,77);">6h to 12h</text>
                </g>
                <g transform="matrix(0.707107,-0.707107,0.707107,0.707107,345.41,221.56)">
                    <text x="-41.594px" y="0px" style="font-family:'ArialMT', 'Arial', sans-serif;font-size:8.8px;fill:rgb(77,77,77);">12h to 24h</text>
                </g>
                <g transform="matrix(0.707107,-0.707107,0.707107,0.707107,425.46,221.56)">
                    <text x="-41.594px" y="0px" style="font-family:'ArialMT', 'Arial', sans-serif;font-size:8.8px;fill:rgb(77,77,77);">24h to 36h</text>
                </g>
                <g transform="matrix(0.707107,-0.707107,0.707107,0.707107,505.51,221.56)">
                    <text x="-41.594px" y="0px" style="font-family:'ArialMT', 'Arial', sans-serif;font-size:8.8px;fill:rgb(77,77,77);">36h to 48h</text>
                </g>
                <g transform="matrix(0.707107,-0.707107,0.707107,0.707107,585.57,221.56)">
                    <text x="-41.594px" y="0px" style="font-family:'ArialMT', 'Arial', sans-serif;font-size:8.8px;fill:rgb(77,77,77);">48h to 72h</text>
                </g>
                <g transform="matrix(-3.82857e-16,-1,1,-3.82857e-16,27.63,126.53)">
                    <text x="-25.062px" y="0px" style="font-family:'ArialMT', 'Arial', sans-serif;font-size:11px;">LFC-Ratio</text>
                </g>
                <g transform="matrix(1,0,0,1,52.76,32.62)">
                    <text x="0px" y="0px" style="font-family:'ArialMT', 'Arial', sans-serif;font-size:13.2px;">Distribution of Protein-RNA<tspan x="157.73px 161.397px " y="0px 0px "> L</tspan>FC-Ratios</text>
                </g>
            </g>
        </g>
    </g>
</svg>
